<?xml version="1.0" encoding="UTF-8"?>
<!DOCTYPE svg PUBLIC "-//W3C//DTD SVG 1.1//EN" "http://www.w3.org/Graphics/SVG/1.1/DTD/svg11.dtd">
<svg xmlns="http://www.w3.org/2000/svg" version="1.1" width="577px" height="433px" style="shape-rendering:geometricPrecision; text-rendering:geometricPrecision; image-rendering:optimizeQuality; fill-rule:evenodd; clip-rule:evenodd" xmlns:xlink="http://www.w3.org/1999/xlink">
<g><path style="opacity:0.993" fill="#fab4d4" d="M 386.5,87.5 C 387.694,88.2719 388.694,89.2719 389.5,90.5C 381.844,87.1181 373.844,85.9515 365.5,87C 360.829,88.4192 356.329,90.2526 352,92.5C 349.936,91.4086 347.769,91.2419 345.5,92C 342.245,95.3382 338.578,98.1715 334.5,100.5C 336.397,101.668 336.564,103.335 335,105.5C 334.167,104.5 333.333,103.5 332.5,102.5C 332.855,105.657 331.188,107.657 327.5,108.5C 324.929,107.272 323.595,105.272 323.5,102.5C 324.609,102.557 325.609,102.89 326.5,103.5C 327.117,103.611 327.617,103.944 328,104.5C 332.169,98.157 337.669,93.4904 344.5,90.5C 347.491,90.8337 349.824,89.8337 351.5,87.5C 353.401,87.4332 355.234,87.7665 357,88.5C 358.749,88.2517 359.582,87.2517 359.5,85.5C 368.678,82.9501 377.678,83.6168 386.5,87.5 Z"/></g>
<g><path style="opacity:0.98" fill="#f5bcd6" d="M 304.5,87.5 C 294.183,86.7735 283.85,86.4402 273.5,86.5C 283.889,82.9174 294.222,83.2507 304.5,87.5 Z"/></g>
<g><path style="opacity:1" fill="#fdadd4" d="M 273.5,86.5 C 283.85,86.4402 294.183,86.7735 304.5,87.5C 310.236,88.8668 315.236,91.5335 319.5,95.5C 320.451,98.1017 321.784,100.435 323.5,102.5C 323.595,105.272 324.929,107.272 327.5,108.5C 331.188,107.657 332.855,105.657 332.5,102.5C 333.333,103.5 334.167,104.5 335,105.5C 336.564,103.335 336.397,101.668 334.5,100.5C 338.578,98.1715 342.245,95.3382 345.5,92C 347.769,91.2419 349.936,91.4086 352,92.5C 356.329,90.2526 360.829,88.4192 365.5,87C 373.844,85.9515 381.844,87.1181 389.5,90.5C 390.5,90.5 391.5,90.5 392.5,90.5C 392.369,95.369 394.703,97.369 399.5,96.5C 399.854,98.5412 399.854,100.374 399.5,102C 405.457,102.598 408.457,105.765 408.5,111.5C 409.5,111.5 410.5,111.5 411.5,111.5C 411.435,114.471 412.269,117.138 414,119.5C 414.832,128.186 414.665,136.853 413.5,145.5C 411.594,150.382 410.261,155.382 409.5,160.5C 408.529,162.483 407.529,164.483 406.5,166.5C 402.515,168.155 400.515,171.155 400.5,175.5C 396.521,181.477 391.854,186.81 386.5,191.5C 384.092,192.201 381.758,193.201 379.5,194.5C 380.127,195.417 380.461,196.417 380.5,197.5C 380.5,198.167 380.167,198.5 379.5,198.5C 377.263,199.449 374.929,200.116 372.5,200.5C 372.657,201.873 372.49,203.207 372,204.5C 368.873,203.464 368.039,204.464 369.5,207.5C 367.248,208.333 365.081,208.333 363,207.5C 358.214,211.13 354.381,215.463 351.5,220.5C 349.54,221.138 347.707,221.138 346,220.5C 345.51,221.793 345.343,223.127 345.5,224.5C 342.101,225.634 338.768,226.967 335.5,228.5C 335.5,229.5 335.5,230.5 335.5,231.5C 335.167,231.5 334.833,231.5 334.5,231.5C 331.475,231.877 328.475,232.044 325.5,232C 323.833,231 322.167,230 320.5,229C 322.29,228.851 322.956,228.351 322.5,227.5C 321.033,226.305 319.533,226.305 318,227.5C 315.039,225.633 311.872,224.299 308.5,223.5C 308.611,222.883 308.944,222.383 309.5,222C 306.443,218.268 302.443,216.101 297.5,215.5C 296.833,215.5 296.5,215.167 296.5,214.5C 295.19,212.852 293.857,211.186 292.5,209.5C 292.709,208.914 293.043,208.414 293.5,208C 291.5,207.667 289.5,207.333 287.5,207C 286.692,205.294 285.359,204.461 283.5,204.5C 282.5,204.167 281.833,203.5 281.5,202.5C 281.461,201.417 281.127,200.417 280.5,199.5C 276.779,196.76 273.113,194.094 269.5,191.5C 265.456,188.457 262.123,184.791 259.5,180.5C 259.5,178.833 259.5,177.167 259.5,175.5C 255.678,174.82 254.011,172.487 254.5,168.5C 253.167,168.5 251.833,168.5 250.5,168.5C 250.924,164.998 249.59,162.665 246.5,161.5C 246.5,161.167 246.5,160.833 246.5,160.5C 246.322,157.784 245.822,155.117 245,152.5C 244.502,150.456 243.335,149.122 241.5,148.5C 240.612,145.946 240.279,143.279 240.5,140.5C 240.334,134.824 240.501,129.157 241,123.5C 242.927,120.052 244.261,116.385 245,112.5C 246.399,111.773 247.899,111.273 249.5,111C 248.422,110.326 247.755,109.326 247.5,108C 247.954,106.061 248.621,104.228 249.5,102.5C 249.427,100.973 250.094,99.9731 251.5,99.5C 252.847,100.028 254.181,100.195 255.5,100C 254.72,98.927 254.887,97.7604 256,96.5C 257.441,95.7402 258.941,95.0736 260.5,94.5C 261.386,93.675 261.719,92.675 261.5,91.5C 263.199,91.6602 264.866,91.4935 266.5,91C 269.093,89.6268 271.426,88.1268 273.5,86.5 Z M 293.5,102.5 C 293.833,102.5 294.167,102.5 294.5,102.5C 297.088,104.592 300.088,105.925 303.5,106.5C 311.762,112.093 319.096,118.76 325.5,126.5C 330.449,127.605 333.782,125.605 335.5,120.5C 337.833,118.5 340.167,116.5 342.5,114.5C 345.98,110.67 349.98,107.67 354.5,105.5C 355.492,105.672 356.158,105.338 356.5,104.5C 365.652,101.552 374.652,101.885 383.5,105.5C 385.183,107.514 387.183,109.18 389.5,110.5C 391.529,112.858 393.529,115.192 395.5,117.5C 395.229,119.38 395.896,120.713 397.5,121.5C 398.703,127.514 398.703,133.514 397.5,139.5C 395.903,145.289 393.903,150.955 391.5,156.5C 389.808,158.205 388.475,160.205 387.5,162.5C 386.094,162.973 385.427,163.973 385.5,165.5C 381.596,169.648 377.929,173.981 374.5,178.5C 370.785,181.548 367.452,184.881 364.5,188.5C 363.833,188.5 363.5,188.833 363.5,189.5C 360.911,190.419 358.911,192.086 357.5,194.5C 355.251,195.08 353.585,196.413 352.5,198.5C 350.596,198.738 349.262,199.738 348.5,201.5C 343.635,203.763 339.302,206.763 335.5,210.5C 332.622,211.37 329.955,212.703 327.5,214.5C 323.278,211.56 318.945,208.894 314.5,206.5C 313.127,204.793 311.461,203.46 309.5,202.5C 304.833,198.833 300.167,195.167 295.5,191.5C 288.526,184.861 281.526,178.194 274.5,171.5C 271.883,166.886 268.883,162.553 265.5,158.5C 265.573,156.973 264.906,155.973 263.5,155.5C 261.451,150.09 259.451,144.756 257.5,139.5C 257.384,136.14 257.051,132.807 256.5,129.5C 257.875,122.75 260.875,116.75 265.5,111.5C 267.806,109.861 269.806,107.861 271.5,105.5C 274.016,105.245 276.35,104.411 278.5,103C 283.489,102.501 288.489,102.334 293.5,102.5 Z"/></g>
<g><path style="opacity:1" fill="#f5bfd8" d="M 273.5,86.5 C 271.426,88.1268 269.093,89.6268 266.5,91C 264.866,91.4935 263.199,91.6602 261.5,91.5C 264.768,88.2935 268.768,86.6268 273.5,86.5 Z"/></g>
<g><path style="opacity:1" fill="#f8bed8" d="M 359.5,85.5 C 359.582,87.2517 358.749,88.2517 357,88.5C 355.234,87.7665 353.401,87.4332 351.5,87.5C 353.905,86.2318 356.572,85.5651 359.5,85.5 Z"/></g>
<g><path style="opacity:0.235" fill="#f6cee0" d="M 386.5,87.5 C 388.97,87.6535 390.97,88.6535 392.5,90.5C 391.5,90.5 390.5,90.5 389.5,90.5C 388.694,89.2719 387.694,88.2719 386.5,87.5 Z"/></g>
<g><path style="opacity:0.878" fill="#f9c9e0" d="M 351.5,87.5 C 349.824,89.8337 347.491,90.8337 344.5,90.5C 346.509,88.9348 348.843,87.9348 351.5,87.5 Z"/></g>
<g><path style="opacity:0.988" fill="#f6bed7" d="M 261.5,91.5 C 261.719,92.675 261.386,93.675 260.5,94.5C 258.941,95.0736 257.441,95.7402 256,96.5C 254.887,97.7604 254.72,98.927 255.5,100C 254.181,100.195 252.847,100.028 251.5,99.5C 253.963,95.6998 257.296,93.0332 261.5,91.5 Z"/></g>
<g><path style="opacity:0.882" fill="#f6c3da" d="M 319.5,95.5 C 322.573,97.5691 324.906,100.236 326.5,103.5C 325.609,102.89 324.609,102.557 323.5,102.5C 321.784,100.435 320.451,98.1017 319.5,95.5 Z"/></g>
<g><path style="opacity:0.894" fill="#f5c8db" d="M 403.5,98.5 C 405.167,99.5 406.5,100.833 407.5,102.5C 404.858,102.512 403.525,101.179 403.5,98.5 Z"/></g>
<g><path style="opacity:0.784" fill="#f1bad5" d="M 293.5,102.5 C 288.489,102.334 283.489,102.501 278.5,103C 276.35,104.411 274.016,105.245 271.5,105.5C 272.848,103.52 274.848,102.353 277.5,102C 283.016,101.183 288.35,101.349 293.5,102.5 Z"/></g>
<g><path style="opacity:0.741" fill="#f2b8d3" d="M 383.5,105.5 C 374.652,101.885 365.652,101.552 356.5,104.5C 357.347,103.034 358.68,102.2 360.5,102C 364.85,101.632 369.183,101.132 373.5,100.5C 377.771,100.678 381.105,102.344 383.5,105.5 Z"/></g>
<g><path style="opacity:1" fill="#f6bcd6" d="M 294.5,102.5 C 297.166,102.933 299.832,103.433 302.5,104C 303.252,104.671 303.586,105.504 303.5,106.5C 300.088,105.925 297.088,104.592 294.5,102.5 Z"/></g>
<g><path style="opacity:1" fill="#f6c1d9" d="M 354.5,105.5 C 349.98,107.67 345.98,110.67 342.5,114.5C 342.5,113.167 342.5,111.833 342.5,110.5C 343.552,110.649 344.552,110.483 345.5,110C 345.167,109.667 344.833,109.333 344.5,109C 347.241,106.239 350.574,105.072 354.5,105.5 Z"/></g>
<g><path style="opacity:0.944" fill="#f5bcd7" d="M 383.5,105.5 C 387.938,104.425 389.938,106.092 389.5,110.5C 387.183,109.18 385.183,107.514 383.5,105.5 Z"/></g>
<g><path style="opacity:0.98" fill="#f6c1d9" d="M 389.5,110.5 C 393.301,111.3 395.301,113.633 395.5,117.5C 393.529,115.192 391.529,112.858 389.5,110.5 Z"/></g>
<g><path style="opacity:1" fill="#f7bed9" d="M 303.5,106.5 C 306.167,106.833 308.833,107.167 311.5,107.5C 312.414,110.356 314.081,112.856 316.5,115C 317.899,115.595 319.232,115.428 320.5,114.5C 321.645,115.776 321.645,117.109 320.5,118.5C 322.607,122.136 325.607,124.303 329.5,125C 329.167,124.667 328.833,124.333 328.5,124C 329.448,123.517 330.448,123.351 331.5,123.5C 331.5,122.5 331.5,121.5 331.5,120.5C 332.833,120.5 334.167,120.5 335.5,120.5C 333.782,125.605 330.449,127.605 325.5,126.5C 319.096,118.76 311.762,112.093 303.5,106.5 Z"/></g>
<g><path style="opacity:0.998" fill="#f5bbd8" d="M 249.5,102.5 C 248.621,104.228 247.954,106.061 247.5,108C 247.755,109.326 248.422,110.326 249.5,111C 247.899,111.273 246.399,111.773 245,112.5C 244.261,116.385 242.927,120.052 241,123.5C 240.501,129.157 240.334,134.824 240.5,140.5C 239.114,137.785 238.447,134.785 238.5,131.5C 238.857,120.408 242.524,110.742 249.5,102.5 Z"/></g>
<g><path style="opacity:1" fill="#fabad8" d="M 265.5,111.5 C 260.875,116.75 257.875,122.75 256.5,129.5C 256.139,125.089 255.639,120.756 255,116.5C 255.667,117.833 256.667,118.833 258,119.5C 259.163,117.715 259.83,115.715 260,113.5C 261.444,111.845 263.278,111.178 265.5,111.5 Z"/></g>
<g><path style="opacity:0.919" fill="#f5bcd7" d="M 397.5,121.5 C 399.927,123.508 400.927,126.174 400.5,129.5C 400.45,132.976 399.783,136.31 398.5,139.5C 398.167,139.5 397.833,139.5 397.5,139.5C 398.703,133.514 398.703,127.514 397.5,121.5 Z"/></g>
<g><path style="opacity:0.988" fill="#f6b8d5" d="M 392.5,90.5 C 396.732,92.4002 400.399,95.0669 403.5,98.5C 403.525,101.179 404.858,102.512 407.5,102.5C 416.084,114.428 418.918,127.761 416,142.5C 414.636,148.899 412.469,154.899 409.5,160.5C 410.261,155.382 411.594,150.382 413.5,145.5C 414.665,136.853 414.832,128.186 414,119.5C 412.269,117.138 411.435,114.471 411.5,111.5C 410.5,111.5 409.5,111.5 408.5,111.5C 408.457,105.765 405.457,102.598 399.5,102C 399.854,100.374 399.854,98.5412 399.5,96.5C 394.703,97.369 392.369,95.369 392.5,90.5 Z"/></g>
<g><path style="opacity:0.99" fill="#f8bfd9" d="M 257.5,139.5 C 259.451,144.756 261.451,150.09 263.5,155.5C 261.756,153.138 259.923,150.805 258,148.5C 257.502,145.518 257.335,142.518 257.5,139.5 Z"/></g>
<g><path style="opacity:0.98" fill="#f6c5dd" d="M 241.5,148.5 C 243.335,149.122 244.502,150.456 245,152.5C 245.822,155.117 246.322,157.784 246.5,160.5C 244.072,156.901 242.406,152.901 241.5,148.5 Z"/></g>
<g><path style="opacity:1" fill="#f8bad7" d="M 397.5,139.5 C 397.833,139.5 398.167,139.5 398.5,139.5C 397.474,145.213 396.974,150.88 397,156.5C 395.293,155.862 393.46,155.862 391.5,156.5C 393.903,150.955 395.903,145.289 397.5,139.5 Z"/></g>
<g><path style="opacity:0.718" fill="#f3c2da" d="M 265.5,158.5 C 268.883,162.553 271.883,166.886 274.5,171.5C 269.675,168.542 266.675,164.209 265.5,158.5 Z"/></g>
<g><path style="opacity:0.051" fill="#fee8ee" d="M 387.5,162.5 C 387.573,164.027 386.906,165.027 385.5,165.5C 385.427,163.973 386.094,162.973 387.5,162.5 Z"/></g>
<g><path style="opacity:0.569" fill="#f8cde2" d="M 246.5,161.5 C 249.59,162.665 250.924,164.998 250.5,168.5C 249.235,166.209 247.902,163.875 246.5,161.5 Z"/></g>
<g><path style="opacity:0.99" fill="#f9cadf" d="M 406.5,166.5 C 405.231,170.054 403.231,173.054 400.5,175.5C 400.515,171.155 402.515,168.155 406.5,166.5 Z"/></g>
<g><path style="opacity:0.839" fill="#f3c3da" d="M 385.5,165.5 C 383.622,171.376 379.955,175.709 374.5,178.5C 377.929,173.981 381.596,169.648 385.5,165.5 Z"/></g>
<g><path style="opacity:0.992" fill="#f7c1da" d="M 250.5,168.5 C 251.833,168.5 253.167,168.5 254.5,168.5C 254.011,172.487 255.678,174.82 259.5,175.5C 259.5,177.167 259.5,178.833 259.5,180.5C 255.762,177.09 252.762,173.09 250.5,168.5 Z"/></g>
<g><path style="opacity:1" fill="#f5bfda" d="M 374.5,178.5 C 372.929,183.405 369.596,186.738 364.5,188.5C 367.452,184.881 370.785,181.548 374.5,178.5 Z"/></g>
<g><path style="opacity:0.659" fill="#f3c7dc" d="M 363.5,189.5 C 362.089,191.914 360.089,193.581 357.5,194.5C 358.911,192.086 360.911,190.419 363.5,189.5 Z"/></g>
<g><path style="opacity:0.804" fill="#f4bdd7" d="M 269.5,191.5 C 273.113,194.094 276.779,196.76 280.5,199.5C 281.127,200.417 281.461,201.417 281.5,202.5C 276.895,199.564 272.895,195.898 269.5,191.5 Z"/></g>
<g><path style="opacity:1" fill="#f9c4dd" d="M 386.5,191.5 C 384.954,193.897 382.954,195.897 380.5,197.5C 380.461,196.417 380.127,195.417 379.5,194.5C 381.758,193.201 384.092,192.201 386.5,191.5 Z"/></g>
<g><path style="opacity:0.98" fill="#f6bdd6" d="M 295.5,191.5 C 300.167,195.167 304.833,198.833 309.5,202.5C 305.954,201.394 302.621,199.727 299.5,197.5C 297.364,196.031 296.03,194.031 295.5,191.5 Z"/></g>
<g><path style="opacity:0.678" fill="#f2c2d9" d="M 357.5,194.5 C 356.415,196.587 354.749,197.92 352.5,198.5C 353.585,196.413 355.251,195.08 357.5,194.5 Z"/></g>
<g><path style="opacity:0.996" fill="#f9c0d9" d="M 379.5,198.5 C 376.167,201.5 372.833,204.5 369.5,207.5C 368.039,204.464 368.873,203.464 372,204.5C 372.49,203.207 372.657,201.873 372.5,200.5C 374.929,200.116 377.263,199.449 379.5,198.5 Z"/></g>
<g><path style="opacity:1" fill="#f6b7d4" d="M 283.5,204.5 C 285.359,204.461 286.692,205.294 287.5,207C 289.5,207.333 291.5,207.667 293.5,208C 293.043,208.414 292.709,208.914 292.5,209.5C 293.857,211.186 295.19,212.852 296.5,214.5C 291.591,211.926 287.258,208.592 283.5,204.5 Z"/></g>
<g><path style="opacity:0.985" fill="#f7bad6" d="M 348.5,201.5 C 345.567,206.42 341.234,209.42 335.5,210.5C 339.302,206.763 343.635,203.763 348.5,201.5 Z"/></g>
<g><path style="opacity:1" fill="#f8b7d6" d="M 369.5,207.5 C 364.045,212.548 358.045,216.881 351.5,220.5C 354.381,215.463 358.214,211.13 363,207.5C 365.081,208.333 367.248,208.333 369.5,207.5 Z"/></g>
<g><path style="opacity:0.694" fill="#f5b8d5" d="M 314.5,206.5 C 318.945,208.894 323.278,211.56 327.5,214.5C 329.955,212.703 332.622,211.37 335.5,210.5C 335.406,213.068 334.072,214.568 331.5,215C 327.129,215.016 322.795,214.516 318.5,213.5C 318.579,212.07 318.246,210.736 317.5,209.5C 316.007,208.859 315.007,207.859 314.5,206.5 Z"/></g>
<g><path style="opacity:1" fill="#f5b7d5" d="M 297.5,215.5 C 302.443,216.101 306.443,218.268 309.5,222C 308.944,222.383 308.611,222.883 308.5,223.5C 304.264,221.555 300.597,218.888 297.5,215.5 Z"/></g>
<g><path style="opacity:1" fill="#f9bfd9" d="M 351.5,220.5 C 349.853,222.326 347.853,223.66 345.5,224.5C 345.343,223.127 345.51,221.793 346,220.5C 347.707,221.138 349.54,221.138 351.5,220.5 Z"/></g>
<g><path style="opacity:0.898" fill="#f9c4dc" d="M 345.5,224.5 C 342.554,227.313 339.221,229.646 335.5,231.5C 335.5,230.5 335.5,229.5 335.5,228.5C 338.768,226.967 342.101,225.634 345.5,224.5 Z"/></g>
<g><path style="opacity:0.718" fill="#f5bed9" d="M 175.5,226.5 C 166.066,228.283 156.399,229.283 146.5,229.5C 155.876,227.054 165.543,226.054 175.5,226.5 Z"/></g>
<g><path style="opacity:1" fill="#fdadd4" d="M 194.5,225.5 C 202.447,226.635 210.113,228.635 217.5,231.5C 218.568,232.434 219.901,232.768 221.5,232.5C 221.852,235.114 223.352,236.781 226,237.5C 229.915,236.917 234.082,236.583 238.5,236.5C 238.833,236.5 239.167,236.5 239.5,236.5C 241.416,238.977 244.083,239.977 247.5,239.5C 247.804,240.15 248.137,240.817 248.5,241.5C 251.167,242.5 253.833,243.5 256.5,244.5C 255.674,245.451 255.508,246.451 256,247.5C 260.957,246.888 265.79,246.888 270.5,247.5C 270.833,247.5 271.167,247.5 271.5,247.5C 272.815,249.65 274.815,250.984 277.5,251.5C 280.768,252.487 284.102,252.82 287.5,252.5C 288.134,253.947 289.301,254.613 291,254.5C 296.41,255.934 301.91,256.601 307.5,256.5C 309.5,256.5 311.5,256.5 313.5,256.5C 328.976,258.103 344.643,259.103 360.5,259.5C 361.167,259.5 361.833,259.5 362.5,259.5C 363.99,261.28 365.99,261.946 368.5,261.5C 370.993,260.226 373.659,259.56 376.5,259.5C 382.969,258.6 389.303,257.1 395.5,255C 398.902,254.169 401.902,252.669 404.5,250.5C 407.583,248.975 410.916,247.975 414.5,247.5C 421.371,245.852 428.371,244.852 435.5,244.5C 435.281,243.325 435.614,242.325 436.5,241.5C 441.503,240.062 446.169,238.062 450.5,235.5C 460.175,234.291 469.841,234.291 479.5,235.5C 481.759,238.409 484.759,240.076 488.5,240.5C 489.167,240.833 489.833,241.167 490.5,241.5C 490.557,242.609 490.89,243.609 491.5,244.5C 491.34,246.199 491.506,247.866 492,249.5C 493.755,250.67 494.755,252.337 495,254.5C 495.498,257.482 495.665,260.482 495.5,263.5C 495.5,264.167 495.5,264.833 495.5,265.5C 494.292,266.234 492.959,266.567 491.5,266.5C 491.167,268.5 490.833,270.5 490.5,272.5C 489.764,274.229 488.43,275.229 486.5,275.5C 484.669,274.948 483.003,274.948 481.5,275.5C 480.522,275.023 479.689,274.357 479,273.5C 478.25,274.126 477.416,274.626 476.5,275C 478.439,275.908 479.439,277.408 479.5,279.5C 477.046,279.679 474.879,279.013 473,277.5C 470.913,279.126 468.747,280.626 466.5,282C 467.167,282.667 467.833,283.333 468.5,284C 464.73,285.052 461.064,286.385 457.5,288C 456.748,288.671 456.414,289.504 456.5,290.5C 456.5,291.167 456.167,291.5 455.5,291.5C 453.62,291.229 452.287,291.896 451.5,293.5C 451.167,293.5 450.833,293.5 450.5,293.5C 447.834,293.933 445.168,294.433 442.5,295C 443.056,295.383 443.389,295.883 443.5,296.5C 437.733,299.577 431.733,302.244 425.5,304.5C 423.208,304.756 421.041,304.423 419,303.5C 417.15,306.841 414.317,308.174 410.5,307.5C 406.915,307.269 403.748,308.269 401,310.5C 400.667,310.167 400.333,309.833 400,309.5C 399.508,310.549 399.674,311.549 400.5,312.5C 397.091,313.239 394.425,314.905 392.5,317.5C 389.382,319.393 386.049,320.726 382.5,321.5C 377.5,322.167 372.5,322.833 367.5,323.5C 367.5,324.5 367.5,325.5 367.5,326.5C 364.173,326.829 361.507,328.163 359.5,330.5C 358.833,330.5 358.167,330.5 357.5,330.5C 353.837,330.952 350.17,331.452 346.5,332C 345.177,332.816 344.511,333.983 344.5,335.5C 344.167,335.5 343.833,335.5 343.5,335.5C 340.941,335.198 338.607,335.532 336.5,336.5C 334.409,336.682 332.409,336.348 330.5,335.5C 327.075,339.95 322.742,341.283 317.5,339.5C 316.034,340.135 314.7,340.969 313.5,342C 309.848,342.499 306.182,342.665 302.5,342.5C 300.833,342.5 299.167,342.5 297.5,342.5C 297.063,340.926 296.063,339.759 294.5,339C 279.668,337.761 265.002,335.927 250.5,333.5C 247.763,333.599 245.096,333.265 242.5,332.5C 240.485,331.076 238.152,330.41 235.5,330.5C 231.42,328.285 227.087,326.951 222.5,326.5C 224.199,326.66 225.866,326.494 227.5,326C 225.392,325.64 223.392,324.973 221.5,324C 222.952,322.483 224.452,322.316 226,323.5C 236.453,317.902 235.62,316.069 223.5,318C 225.246,318.471 226.913,319.138 228.5,320C 225.845,320.564 223.179,321.064 220.5,321.5C 216.593,321.019 212.593,321.019 208.5,321.5C 208.649,320.448 208.483,319.448 208,318.5C 202.923,315.775 197.423,314.775 191.5,315.5C 190.172,307.627 192.006,306.294 197,311.5C 198.333,310.167 199.667,310.167 201,311.5C 201.195,310.181 201.028,308.847 200.5,307.5C 203.833,307.5 207.167,307.5 210.5,307.5C 211.5,307.5 212.5,307.5 213.5,307.5C 213.414,308.496 213.748,309.329 214.5,310C 217.482,310.498 220.482,310.665 223.5,310.5C 226.059,310.198 228.393,310.532 230.5,311.5C 230.918,312.222 231.584,312.722 232.5,313C 231.833,313.333 231.167,313.667 230.5,314C 232.878,315.768 235.378,315.935 238,314.5C 244.013,316.469 250.18,317.469 256.5,317.5C 261.23,319.237 266.23,320.237 271.5,320.5C 277.209,322.505 283.209,323.505 289.5,323.5C 290.5,323.5 291.5,323.5 292.5,323.5C 292.312,325.103 292.812,326.437 294,327.5C 302.422,326.682 310.922,326.182 319.5,326C 320.571,325.148 321.571,324.315 322.5,323.5C 322.833,323.5 323.167,323.5 323.5,323.5C 331.616,322.039 339.616,320.372 347.5,318.5C 347.5,316.5 347.5,314.5 347.5,312.5C 335.152,313.433 322.819,313.1 310.5,311.5C 308.5,311.5 306.5,311.5 304.5,311.5C 303.4,310.442 302.066,309.608 300.5,309C 291.492,307.832 282.492,306.665 273.5,305.5C 272.167,305.5 270.833,305.5 269.5,305.5C 268.01,303.72 266.01,303.054 263.5,303.5C 258.282,302.924 253.282,301.591 248.5,299.5C 247.375,297.871 246.041,296.371 244.5,295C 249.756,293.51 255.089,292.843 260.5,293C 257.924,294.383 258.258,295.217 261.5,295.5C 264.464,295.29 267.13,294.29 269.5,292.5C 274.857,294.657 280.19,294.99 285.5,293.5C 286.167,293.5 286.833,293.5 287.5,293.5C 289.659,295.34 292.325,296.507 295.5,297C 300.823,297.499 306.156,297.666 311.5,297.5C 317.196,297.447 322.862,297.78 328.5,298.5C 331.768,299.822 335.435,300.489 339.5,300.5C 347.185,300.276 354.851,299.776 362.5,299C 365.684,298.246 368.351,296.746 370.5,294.5C 373.94,293.551 375.274,291.218 374.5,287.5C 375.231,283.248 373.565,280.581 369.5,279.5C 369.196,278.85 368.863,278.183 368.5,277.5C 365.247,276.402 361.914,275.736 358.5,275.5C 356.833,275.5 355.167,275.5 353.5,275.5C 337.081,273.121 320.414,272.121 303.5,272.5C 299.084,271.132 294.584,269.465 290,267.5C 288.486,267.77 286.986,268.103 285.5,268.5C 274.876,264.094 263.876,261.094 252.5,259.5C 248.303,258.458 244.303,257.125 240.5,255.5C 240.389,254.883 240.056,254.383 239.5,254C 234.819,252.656 230.153,251.323 225.5,250C 224.167,249.333 223.167,248.333 222.5,247C 217.829,246.462 213.162,245.962 208.5,245.5C 207.833,245.5 207.167,245.5 206.5,245.5C 203.663,243.598 200.329,242.931 196.5,243.5C 193.167,243.5 189.833,243.5 186.5,243.5C 177.267,243.075 168.267,243.741 159.5,245.5C 158.833,245.5 158.167,245.5 157.5,245.5C 150.593,245.754 143.926,246.754 137.5,248.5C 135.833,248.5 134.167,248.5 132.5,248.5C 132.414,247.504 132.748,246.671 133.5,246C 137.847,245.36 141.847,243.86 145.5,241.5C 148.103,242.562 150.77,242.728 153.5,242C 153.043,241.586 152.709,241.086 152.5,240.5C 147.633,239.359 143.133,239.359 139,240.5C 135.894,238.31 132.894,238.31 130,240.5C 128.605,240.22 127.438,239.553 126.5,238.5C 121.349,237.574 116.349,236.574 111.5,235.5C 114.187,235.664 116.854,235.497 119.5,235C 120.252,234.329 120.586,233.496 120.5,232.5C 129.074,230.719 137.741,229.719 146.5,229.5C 156.399,229.283 166.066,228.283 175.5,226.5C 181.645,225.51 187.978,225.177 194.5,225.5 Z M 477.5,254.5 C 478.366,256.144 478.866,257.811 479,259.5C 474.907,262.455 470.74,265.122 466.5,267.5C 463.843,267.935 461.509,268.935 459.5,270.5C 454.707,271.733 450.374,273.733 446.5,276.5C 445.508,276.328 444.842,276.662 444.5,277.5C 443.127,277.343 441.793,277.51 440.5,278C 435.022,280.425 429.688,282.925 424.5,285.5C 419.343,287.25 414.343,289.25 409.5,291.5C 402.972,294.231 396.306,296.565 389.5,298.5C 390.324,294.201 390.991,289.867 391.5,285.5C 391.514,281.699 390.514,278.199 388.5,275C 392.177,273.341 395.844,271.841 399.5,270.5C 401.435,269.85 403.435,269.517 405.5,269.5C 409.856,267.671 414.189,266.004 418.5,264.5C 424.051,263.203 429.384,261.537 434.5,259.5C 442.16,257.005 449.827,254.505 457.5,252C 464.553,250.741 471.22,251.574 477.5,254.5 Z"/></g>
<g><path style="opacity:1" fill="#f8bed9" d="M 308.5,223.5 C 311.872,224.299 315.039,225.633 318,227.5C 319.533,226.305 321.033,226.305 322.5,227.5C 322.956,228.351 322.29,228.851 320.5,229C 322.167,230 323.833,231 325.5,232C 328.475,232.044 331.475,231.877 334.5,231.5C 332.586,233.1 330.419,234.434 328,235.5C 320.9,232.372 314.4,228.372 308.5,223.5 Z"/></g>
<g><path style="opacity:0.871" fill="#f4c8dc" d="M 194.5,225.5 C 204.353,225.688 213.686,227.688 222.5,231.5C 220.833,231.5 219.167,231.5 217.5,231.5C 210.113,228.635 202.447,226.635 194.5,225.5 Z"/></g>
<g><path style="opacity:0.71" fill="#f6c5db" d="M 479.5,235.5 C 469.841,234.291 460.175,234.291 450.5,235.5C 460.186,231.618 469.853,231.618 479.5,235.5 Z"/></g>
<g><path style="opacity:0.92" fill="#f7bad7" d="M 120.5,232.5 C 120.586,233.496 120.252,234.329 119.5,235C 116.854,235.497 114.187,235.664 111.5,235.5C 103.281,237.405 94.9481,238.905 86.5,240C 84.5011,244.035 81.5011,246.869 77.5,248.5C 77.4587,244.415 79.1254,241.248 82.5,239C 95.1768,236.833 107.843,234.666 120.5,232.5 Z"/></g>
<g><path style="opacity:1" fill="#fab3d4" d="M 217.5,231.5 C 219.167,231.5 220.833,231.5 222.5,231.5C 228.172,232.393 233.506,234.059 238.5,236.5C 234.082,236.583 229.915,236.917 226,237.5C 223.352,236.781 221.852,235.114 221.5,232.5C 219.901,232.768 218.568,232.434 217.5,231.5 Z"/></g>
<g><path style="opacity:1" fill="#feacd4" d="M 111.5,235.5 C 116.349,236.574 121.349,237.574 126.5,238.5C 127.438,239.553 128.605,240.22 130,240.5C 132.894,238.31 135.894,238.31 139,240.5C 143.133,239.359 147.633,239.359 152.5,240.5C 152.709,241.086 153.043,241.586 153.5,242C 150.77,242.728 148.103,242.562 145.5,241.5C 141.847,243.86 137.847,245.36 133.5,246C 132.748,246.671 132.414,247.504 132.5,248.5C 125.849,248.912 119.349,250.245 113,252.5C 109.879,251.464 106.713,251.297 103.5,252C 104.634,253.016 104.301,253.683 102.5,254C 99.8832,254.822 97.2165,255.322 94.5,255.5C 94.5,256.833 94.5,258.167 94.5,259.5C 94.5,260.167 94.5,260.833 94.5,261.5C 93.8826,261.611 93.3826,261.944 93,262.5C 92.1689,269.524 92.3356,276.524 93.5,283.5C 94.1818,284.243 94.8485,284.909 95.5,285.5C 95.335,288.85 95.5017,292.183 96,295.5C 97.706,297.705 99.206,300.038 100.5,302.5C 102.731,304.6 105.064,304.933 107.5,303.5C 108.167,303.5 108.833,303.5 109.5,303.5C 115.75,303.229 121.75,302.229 127.5,300.5C 143.888,299.175 159.888,299.175 175.5,300.5C 182.566,303.959 190.233,305.792 198.5,306C 199.416,306.278 200.082,306.778 200.5,307.5C 201.028,308.847 201.195,310.181 201,311.5C 199.667,310.167 198.333,310.167 197,311.5C 192.006,306.294 190.172,307.627 191.5,315.5C 197.423,314.775 202.923,315.775 208,318.5C 208.483,319.448 208.649,320.448 208.5,321.5C 212.593,321.019 216.593,321.019 220.5,321.5C 223.179,321.064 225.845,320.564 228.5,320C 226.913,319.138 225.246,318.471 223.5,318C 235.62,316.069 236.453,317.902 226,323.5C 224.452,322.316 222.952,322.483 221.5,324C 223.392,324.973 225.392,325.64 227.5,326C 225.866,326.494 224.199,326.66 222.5,326.5C 221.167,326.5 219.833,326.5 218.5,326.5C 218.389,325.883 218.056,325.383 217.5,325C 209.206,323.507 200.872,322.341 192.5,321.5C 190.5,321.167 188.5,320.833 186.5,320.5C 186.389,319.883 186.056,319.383 185.5,319C 183.527,318.505 181.527,318.338 179.5,318.5C 179.539,316.641 178.706,315.308 177,314.5C 175.527,316.007 173.693,316.674 171.5,316.5C 162.118,314.345 152.785,314.012 143.5,315.5C 142.833,316.167 142.167,316.833 141.5,317.5C 138.482,317.704 135.482,318.037 132.5,318.5C 128.486,318.334 124.486,318.501 120.5,319C 114.565,321.484 108.565,322.984 102.5,323.5C 100.218,322.777 97.8845,322.443 95.5,322.5C 92.7573,320.761 90.7573,318.427 89.5,315.5C 89.416,312.318 88.0827,309.985 85.5,308.5C 85.1885,300.473 82.5218,293.473 77.5,287.5C 77.5,286.5 77.5,285.5 77.5,284.5C 76.1982,272.502 76.1982,260.502 77.5,248.5C 81.5011,246.869 84.5011,244.035 86.5,240C 94.9481,238.905 103.281,237.405 111.5,235.5 Z"/></g>
<g><path style="opacity:0.612" fill="#f3c2d8" d="M 479.5,235.5 C 483.291,236.003 486.291,237.67 488.5,240.5C 484.759,240.076 481.759,238.409 479.5,235.5 Z"/></g>
<g><path style="opacity:0.831" fill="#f4c5db" d="M 239.5,236.5 C 242.257,237.512 244.924,238.512 247.5,239.5C 244.083,239.977 241.416,238.977 239.5,236.5 Z"/></g>
<g><path style="opacity:0.6" fill="#f7d8e7" d="M 186.5,243.5 C 177.679,244.551 168.679,245.217 159.5,245.5C 168.267,243.741 177.267,243.075 186.5,243.5 Z"/></g>
<g><path style="opacity:0.88" fill="#f7c4de" d="M 196.5,243.5 C 200.329,242.931 203.663,243.598 206.5,245.5C 202.96,245.247 199.627,244.581 196.5,243.5 Z"/></g>
<g><path style="opacity:1" fill="#f6bbd7" d="M 450.5,235.5 C 446.169,238.062 441.503,240.062 436.5,241.5C 435.614,242.325 435.281,243.325 435.5,244.5C 428.371,244.852 421.371,245.852 414.5,247.5C 426.214,242.898 438.214,238.898 450.5,235.5 Z"/></g>
<g><path style="opacity:0.082" fill="#fce9f2" d="M 490.5,241.5 C 491.906,241.973 492.573,242.973 492.5,244.5C 492.167,244.5 491.833,244.5 491.5,244.5C 490.89,243.609 490.557,242.609 490.5,241.5 Z"/></g>
<g><path style="opacity:0.298" fill="#f3c2d8" d="M 157.5,245.5 C 151.089,247.344 144.422,248.344 137.5,248.5C 143.926,246.754 150.593,245.754 157.5,245.5 Z"/></g>
<g><path style="opacity:1" fill="#f8bbd6" d="M 247.5,239.5 C 255.329,241.925 262.996,244.592 270.5,247.5C 265.79,246.888 260.957,246.888 256,247.5C 255.508,246.451 255.674,245.451 256.5,244.5C 253.833,243.5 251.167,242.5 248.5,241.5C 248.137,240.817 247.804,240.15 247.5,239.5 Z"/></g>
<g><path style="opacity:0.995" fill="#f6bcd6" d="M 491.5,244.5 C 491.833,244.5 492.167,244.5 492.5,244.5C 494.72,248.356 496.387,252.522 497.5,257C 496.883,259.277 496.216,261.444 495.5,263.5C 495.665,260.482 495.498,257.482 495,254.5C 494.755,252.337 493.755,250.67 492,249.5C 491.506,247.866 491.34,246.199 491.5,244.5 Z"/></g>
<g><path style="opacity:0.976" fill="#f7bed9" d="M 208.5,245.5 C 213.162,245.962 217.829,246.462 222.5,247C 223.167,248.333 224.167,249.333 225.5,250C 230.153,251.323 234.819,252.656 239.5,254C 240.056,254.383 240.389,254.883 240.5,255.5C 229.474,253.037 218.807,249.704 208.5,245.5 Z"/></g>
<g><path style="opacity:0.765" fill="#f8beda" d="M 477.5,254.5 C 471.22,251.574 464.553,250.741 457.5,252C 449.827,254.505 442.16,257.005 434.5,259.5C 434.47,258.503 434.97,257.836 436,257.5C 437.811,256.922 439.645,256.422 441.5,256C 442.833,255.333 442.833,254.667 441.5,254C 451.916,250.801 462.582,249.801 473.5,251C 475.55,251.416 476.884,252.583 477.5,254.5 Z"/></g>
<g><path style="opacity:1" fill="#f8beda" d="M 132.5,248.5 C 134.167,248.5 135.833,248.5 137.5,248.5C 124.046,251.775 110.379,254.609 96.5,257C 95.9341,257.995 95.2674,258.828 94.5,259.5C 94.5,258.167 94.5,256.833 94.5,255.5C 97.2165,255.322 99.8832,254.822 102.5,254C 104.301,253.683 104.634,253.016 103.5,252C 106.713,251.297 109.879,251.464 113,252.5C 119.349,250.245 125.849,248.912 132.5,248.5 Z"/></g>
<g><path style="opacity:1" fill="#f9b9d6" d="M 271.5,247.5 C 277.015,248.874 282.348,250.54 287.5,252.5C 284.102,252.82 280.768,252.487 277.5,251.5C 274.815,250.984 272.815,249.65 271.5,247.5 Z"/></g>
<g><path style="opacity:0.588" fill="#f7c8dd" d="M 287.5,252.5 C 294.327,253.681 300.994,255.015 307.5,256.5C 301.91,256.601 296.41,255.934 291,254.5C 289.301,254.613 288.134,253.947 287.5,252.5 Z"/></g>
<g><path style="opacity:0.718" fill="#f5bed8" d="M 404.5,250.5 C 401.902,252.669 398.902,254.169 395.5,255C 389.303,257.1 382.969,258.6 376.5,259.5C 385.486,255.728 394.82,252.728 404.5,250.5 Z"/></g>
<g><path style="opacity:0.946" fill="#f7cbdf" d="M 313.5,256.5 C 324.505,256.333 335.505,256.5 346.5,257C 351.412,257.222 356.079,258.055 360.5,259.5C 344.643,259.103 328.976,258.103 313.5,256.5 Z"/></g>
<g><path style="opacity:0.612" fill="#f3cde2" d="M 362.5,259.5 C 364.786,259.595 366.786,260.262 368.5,261.5C 365.99,261.946 363.99,261.28 362.5,259.5 Z"/></g>
<g><path style="opacity:0.943" fill="#f9bfd9" d="M 434.5,259.5 C 429.384,261.537 424.051,263.203 418.5,264.5C 419.978,262.636 421.978,261.303 424.5,260.5C 427.768,259.513 431.102,259.18 434.5,259.5 Z"/></g>
<g><path style="opacity:0.903" fill="#f2c2da" d="M 77.5,248.5 C 76.1982,260.502 76.1982,272.502 77.5,284.5C 73.6305,272.478 73.6305,260.478 77.5,248.5 Z"/></g>
<g><path style="opacity:0.973" fill="#f6bed8" d="M 252.5,259.5 C 263.876,261.094 274.876,264.094 285.5,268.5C 286.986,268.103 288.486,267.77 290,267.5C 294.584,269.465 299.084,271.132 303.5,272.5C 296.303,272.45 289.303,271.283 282.5,269C 272.497,265.511 262.497,262.344 252.5,259.5 Z"/></g>
<g><path style="opacity:0.99" fill="#f7c6dc" d="M 418.5,264.5 C 414.189,266.004 409.856,267.671 405.5,269.5C 408.815,265.591 413.148,263.924 418.5,264.5 Z"/></g>
<g><path style="opacity:0.998" fill="#f7b9d6" d="M 477.5,254.5 C 478.496,254.414 479.329,254.748 480,255.5C 480.667,257.167 480.667,258.833 480,260.5C 476.674,265.004 472.174,267.337 466.5,267.5C 470.74,265.122 474.907,262.455 479,259.5C 478.866,257.811 478.366,256.144 477.5,254.5 Z"/></g>
<g><path style="opacity:0.863" fill="#f6cce0" d="M 495.5,265.5 C 494.214,268.117 492.547,270.45 490.5,272.5C 490.833,270.5 491.167,268.5 491.5,266.5C 492.959,266.567 494.292,266.234 495.5,265.5 Z"/></g>
<g><path style="opacity:0.996" fill="#f8bdd7" d="M 303.5,272.5 C 320.414,272.121 337.081,273.121 353.5,275.5C 342.828,275.667 332.161,275.5 321.5,275C 315.294,274.618 309.294,273.785 303.5,272.5 Z"/></g>
<g><path style="opacity:0.767" fill="#f3c2db" d="M 459.5,270.5 C 456.063,274 451.729,276 446.5,276.5C 450.374,273.733 454.707,271.733 459.5,270.5 Z"/></g>
<g><path style="opacity:1" fill="#f7bfd8" d="M 358.5,275.5 C 361.914,275.736 365.247,276.402 368.5,277.5C 368.863,278.183 369.196,278.85 369.5,279.5C 365.605,278.538 361.939,277.204 358.5,275.5 Z"/></g>
<g><path style="opacity:0.993" fill="#f5b5d4" d="M 94.5,261.5 C 93.1705,269.554 93.5039,277.554 95.5,285.5C 94.8485,284.909 94.1818,284.243 93.5,283.5C 92.3356,276.524 92.1689,269.524 93,262.5C 93.3826,261.944 93.8826,261.611 94.5,261.5 Z"/></g>
<g><path style="opacity:0.999" fill="#fab4d5" d="M 486.5,275.5 C 478.639,281.601 469.972,286.435 460.5,290C 459.207,290.49 457.873,290.657 456.5,290.5C 456.414,289.504 456.748,288.671 457.5,288C 461.064,286.385 464.73,285.052 468.5,284C 467.833,283.333 467.167,282.667 466.5,282C 468.747,280.626 470.913,279.126 473,277.5C 474.879,279.013 477.046,279.679 479.5,279.5C 479.439,277.408 478.439,275.908 476.5,275C 477.416,274.626 478.25,274.126 479,273.5C 479.689,274.357 480.522,275.023 481.5,275.5C 483.003,274.948 484.669,274.948 486.5,275.5 Z"/></g>
<g><path style="opacity:1" fill="#f5bed7" d="M 444.5,277.5 C 438.788,282.262 432.121,284.928 424.5,285.5C 429.688,282.925 435.022,280.425 440.5,278C 441.793,277.51 443.127,277.343 444.5,277.5 Z"/></g>
<g><path style="opacity:0.439" fill="#f6c8e0" d="M 369.5,279.5 C 373.565,280.581 375.231,283.248 374.5,287.5C 375.274,291.218 373.94,293.551 370.5,294.5C 374.715,289.217 374.382,284.217 369.5,279.5 Z"/></g>
<g><path style="opacity:1" fill="#f9b8d7" d="M 399.5,270.5 C 395.844,271.841 392.177,273.341 388.5,275C 390.514,278.199 391.514,281.699 391.5,285.5C 390.991,289.867 390.324,294.201 389.5,298.5C 388.833,298.5 388.5,298.833 388.5,299.5C 387.833,299.5 387.5,299.833 387.5,300.5C 384.666,298.351 384.999,297.351 388.5,297.5C 388.785,295.712 388.452,294.045 387.5,292.5C 386.313,293.894 385.646,293.727 385.5,292C 385.946,290.274 386.779,288.774 388,287.5C 389.383,290.076 390.217,289.742 390.5,286.5C 390.231,282.412 388.898,278.745 386.5,275.5C 386.513,273.133 387.68,271.8 390,271.5C 393.125,270.744 396.291,270.411 399.5,270.5 Z"/></g>
<g><path style="opacity:0.984" fill="#f8b7d4" d="M 285.5,293.5 C 280.19,294.99 274.857,294.657 269.5,292.5C 267.13,294.29 264.464,295.29 261.5,295.5C 258.258,295.217 257.924,294.383 260.5,293C 255.089,292.843 249.756,293.51 244.5,295C 246.041,296.371 247.375,297.871 248.5,299.5C 245.077,298.637 241.744,297.47 238.5,296C 248.948,291.204 259.948,289.537 271.5,291C 276.237,291.699 280.904,292.532 285.5,293.5 Z"/></g>
<g><path style="opacity:0.998" fill="#f9b7d6" d="M 95.5,285.5 C 96.9409,289.068 98.4409,292.734 100,296.5C 101.736,299.739 104.236,302.073 107.5,303.5C 105.064,304.933 102.731,304.6 100.5,302.5C 99.206,300.038 97.706,297.705 96,295.5C 95.5017,292.183 95.335,288.85 95.5,285.5 Z"/></g>
<g><path style="opacity:0.008" fill="#fce9f1" d="M 455.5,291.5 C 454.486,292.674 453.153,293.34 451.5,293.5C 452.287,291.896 453.62,291.229 455.5,291.5 Z"/></g>
<g><path style="opacity:1" fill="#f6bed8" d="M 77.5,287.5 C 82.5218,293.473 85.1885,300.473 85.5,308.5C 81.7785,301.985 79.1118,294.985 77.5,287.5 Z"/></g>
<g><path style="opacity:0.992" fill="#f8c8de" d="M 450.5,293.5 C 448.574,295.293 446.241,296.293 443.5,296.5C 443.389,295.883 443.056,295.383 442.5,295C 445.168,294.433 447.834,293.933 450.5,293.5 Z"/></g>
<g><path style="opacity:0.963" fill="#f5c2da" d="M 409.5,291.5 C 407.747,293.223 405.747,294.723 403.5,296C 398.691,297.991 393.691,299.491 388.5,300.5C 388.5,300.167 388.5,299.833 388.5,299.5C 389.167,299.5 389.5,299.167 389.5,298.5C 396.306,296.565 402.972,294.231 409.5,291.5 Z"/></g>
<g><path style="opacity:0.745" fill="#f1c1d7" d="M 287.5,293.5 C 295.62,294.843 303.62,296.177 311.5,297.5C 306.156,297.666 300.823,297.499 295.5,297C 292.325,296.507 289.659,295.34 287.5,293.5 Z"/></g>
<g><path style="opacity:0.792" fill="#f9bed9" d="M 175.5,300.5 C 159.888,299.175 143.888,299.175 127.5,300.5C 136.584,298.592 145.917,297.592 155.5,297.5C 162.493,297.223 169.16,298.223 175.5,300.5 Z"/></g>
<g><path style="opacity:0.886" fill="#f5c6dc" d="M 370.5,294.5 C 368.351,296.746 365.684,298.246 362.5,299C 354.851,299.776 347.185,300.276 339.5,300.5C 335.435,300.489 331.768,299.822 328.5,298.5C 337.506,298.666 346.506,298.5 355.5,298C 360.684,297.548 365.684,296.381 370.5,294.5 Z"/></g>
<g><path style="opacity:0.288" fill="#f2c3d9" d="M 127.5,300.5 C 121.75,302.229 115.75,303.229 109.5,303.5C 115.25,301.771 121.25,300.771 127.5,300.5 Z"/></g>
<g><path style="opacity:0.306" fill="#f3d3e3" d="M 183.5,301.5 C 186.373,301.802 189.039,302.469 191.5,303.5C 188.447,303.889 185.78,303.223 183.5,301.5 Z"/></g>
<g><path style="opacity:0.984" fill="#f6bed9" d="M 175.5,300.5 C 178.206,300.575 180.873,300.908 183.5,301.5C 185.78,303.223 188.447,303.889 191.5,303.5C 198.108,304.096 204.442,305.43 210.5,307.5C 207.167,307.5 203.833,307.5 200.5,307.5C 200.082,306.778 199.416,306.278 198.5,306C 190.233,305.792 182.566,303.959 175.5,300.5 Z"/></g>
<g><path style="opacity:0.545" fill="#f9d0e3" d="M 263.5,303.5 C 266.01,303.054 268.01,303.72 269.5,305.5C 267.214,305.405 265.214,304.738 263.5,303.5 Z"/></g>
<g><path style="opacity:0.784" fill="#f4bdd6" d="M 273.5,305.5 C 282.492,306.665 291.492,307.832 300.5,309C 302.066,309.608 303.4,310.442 304.5,311.5C 293.96,309.899 283.626,307.899 273.5,305.5 Z"/></g>
<g><path style="opacity:0.998" fill="#fbb5d4" d="M 410.5,307.5 C 409.147,308.526 408.147,309.859 407.5,311.5C 402.652,313.893 397.652,315.893 392.5,317.5C 394.425,314.905 397.091,313.239 400.5,312.5C 399.674,311.549 399.508,310.549 400,309.5C 400.333,309.833 400.667,310.167 401,310.5C 403.748,308.269 406.915,307.269 410.5,307.5 Z"/></g>
<g><path style="opacity:0.986" fill="#f6c3da" d="M 213.5,307.5 C 217.083,308.007 220.417,309.007 223.5,310.5C 220.482,310.665 217.482,310.498 214.5,310C 213.748,309.329 213.414,308.496 213.5,307.5 Z"/></g>
<g><path style="opacity:0.914" fill="#f7c3db" d="M 425.5,304.5 C 419.732,307.205 413.732,309.538 407.5,311.5C 408.147,309.859 409.147,308.526 410.5,307.5C 414.317,308.174 417.15,306.841 419,303.5C 421.041,304.423 423.208,304.756 425.5,304.5 Z"/></g>
<g><path style="opacity:0.235" fill="#f2c5d9" d="M 85.5,308.5 C 88.0827,309.985 89.416,312.318 89.5,315.5C 87.9172,313.337 86.5839,311.004 85.5,308.5 Z"/></g>
<g><path style="opacity:0.18" fill="#f8e0ee" d="M 143.5,315.5 C 145.5,315.5 147.5,315.5 149.5,315.5C 147.039,316.531 144.373,317.198 141.5,317.5C 142.167,316.833 142.833,316.167 143.5,315.5 Z"/></g>
<g><path style="opacity:0.849" fill="#f6c0da" d="M 230.5,311.5 C 240.085,312.882 249.418,314.882 258.5,317.5C 257.833,317.5 257.167,317.5 256.5,317.5C 250.18,317.469 244.013,316.469 238,314.5C 235.378,315.935 232.878,315.768 230.5,314C 231.167,313.667 231.833,313.333 232.5,313C 231.584,312.722 230.918,312.222 230.5,311.5 Z"/></g>
<g><path style="opacity:0.765" fill="#f4bad5" d="M 143.5,315.5 C 152.785,314.012 162.118,314.345 171.5,316.5C 173.693,316.674 175.527,316.007 177,314.5C 178.706,315.308 179.539,316.641 179.5,318.5C 181.527,318.338 183.527,318.505 185.5,319C 186.056,319.383 186.389,319.883 186.5,320.5C 174.284,317.802 161.95,316.136 149.5,315.5C 147.5,315.5 145.5,315.5 143.5,315.5 Z"/></g>
<g><path style="opacity:0.604" fill="#f2bcd6" d="M 256.5,317.5 C 257.167,317.5 257.833,317.5 258.5,317.5C 262.876,317.909 267.21,318.575 271.5,319.5C 271.5,319.833 271.5,320.167 271.5,320.5C 266.23,320.237 261.23,319.237 256.5,317.5 Z"/></g>
<g><path style="opacity:1" fill="#f6bcd7" d="M 310.5,311.5 C 322.819,313.1 335.152,313.433 347.5,312.5C 347.5,314.5 347.5,316.5 347.5,318.5C 339.616,320.372 331.616,322.039 323.5,323.5C 331.166,320.827 338.833,317.994 346.5,315C 334.253,314.815 322.253,313.648 310.5,311.5 Z"/></g>
<g><path style="opacity:0.784" fill="#f5c8dd" d="M 271.5,319.5 C 277.701,320.513 283.701,321.846 289.5,323.5C 283.209,323.505 277.209,322.505 271.5,320.5C 271.5,320.167 271.5,319.833 271.5,319.5 Z"/></g>
<g><path style="opacity:0.938" fill="#f8bed9" d="M 382.5,321.5 C 374.988,324.675 367.321,327.675 359.5,330.5C 361.507,328.163 364.173,326.829 367.5,326.5C 367.5,325.5 367.5,324.5 367.5,323.5C 372.5,322.833 377.5,322.167 382.5,321.5 Z"/></g>
<g><path style="opacity:0.824" fill="#f7bbd6" d="M 132.5,318.5 C 122.089,321.062 111.589,323.728 101,326.5C 98.9954,325.318 97.1621,323.985 95.5,322.5C 97.8845,322.443 100.218,322.777 102.5,323.5C 108.565,322.984 114.565,321.484 120.5,319C 124.486,318.501 128.486,318.334 132.5,318.5 Z"/></g>
<g><path style="opacity:0.996" fill="#f3b8d4" d="M 192.5,321.5 C 200.872,322.341 209.206,323.507 217.5,325C 218.056,325.383 218.389,325.883 218.5,326.5C 217.833,326.5 217.167,326.5 216.5,326.5C 208.309,325.2 200.309,323.534 192.5,321.5 Z"/></g>
<g><path style="opacity:0.663" fill="#f9c2db" d="M 292.5,323.5 C 298.879,323.892 305.212,324.559 311.5,325.5C 315.105,324.51 318.772,323.844 322.5,323.5C 321.571,324.315 320.571,325.148 319.5,326C 310.922,326.182 302.422,326.682 294,327.5C 292.812,326.437 292.312,325.103 292.5,323.5 Z"/></g>
<g><path style="opacity:0.952" fill="#f6c1da" d="M 216.5,326.5 C 217.167,326.5 217.833,326.5 218.5,326.5C 219.833,326.5 221.167,326.5 222.5,326.5C 227.087,326.951 231.42,328.285 235.5,330.5C 228.893,329.928 222.56,328.594 216.5,326.5 Z"/></g>
<g><path style="opacity:0.222" fill="#ffe5f6" d="M 235.5,330.5 C 238.152,330.41 240.485,331.076 242.5,332.5C 239.848,332.59 237.515,331.924 235.5,330.5 Z"/></g>
<g><path style="opacity:0.992" fill="#f8c7dc" d="M 357.5,330.5 C 353.478,332.734 349.144,334.401 344.5,335.5C 344.511,333.983 345.177,332.816 346.5,332C 350.17,331.452 353.837,330.952 357.5,330.5 Z"/></g>
<g><path style="opacity:0.965" fill="#facee2" d="M 343.5,335.5 C 341.321,336.677 338.987,337.677 336.5,338.5C 336.5,337.833 336.5,337.167 336.5,336.5C 338.607,335.532 340.941,335.198 343.5,335.5 Z"/></g>
<g><path style="opacity:1" fill="#f8bad7" d="M 336.5,336.5 C 336.5,337.167 336.5,337.833 336.5,338.5C 330.2,340.099 323.867,341.599 317.5,343C 312.316,343.816 307.316,343.65 302.5,342.5C 306.182,342.665 309.848,342.499 313.5,342C 314.7,340.969 316.034,340.135 317.5,339.5C 322.742,341.283 327.075,339.95 330.5,335.5C 332.409,336.348 334.409,336.682 336.5,336.5 Z"/></g>
<g><path style="opacity:0.987" fill="#f8bfd9" d="M 250.5,333.5 C 265.002,335.927 279.668,337.761 294.5,339C 296.063,339.759 297.063,340.926 297.5,342.5C 281.492,340.631 265.826,337.631 250.5,333.5 Z"/></g>
</svg>
