<?xml version="1.0" encoding="UTF-8"?>
<svg version="1.1" xmlns="http://www.w3.org/2000/svg" width="2000" height="1500">
<path d="M0 0 C21.01965704 17.07460148 36.36136045 39.68052333 41.5625 66.5625 C41.73330078 67.41690674 41.90410156 68.27131348 42.08007812 69.15161133 C43.56686564 77.15774896 43.9128354 84.99630924 44.0625 93.125 C44.1316285 95.88304884 44.21080496 98.64074859 44.29296875 101.3984375 C44.31340744 102.08820175 44.33384613 102.777966 44.35490417 103.4886322 C46.24398265 164.05751805 60.99215108 222.74977 86.5625 277.5625 C86.95727539 278.41392578 87.35205078 279.26535156 87.75878906 280.14257812 C104.55500834 316.00669469 127.52212328 349.76929098 154.2265625 378.98046875 C155.49900254 380.38696183 156.7652703 381.79958262 157.99804688 383.2409668 C162.85410918 388.90709804 168.03828208 394.22444529 173.31298828 399.49829102 C174.80143237 400.98891615 176.28167277 402.48737017 177.76171875 403.98632812 C183.24492704 409.50150018 188.87406651 414.60646655 194.96411133 419.46118164 C197.44422756 421.46685301 199.81906348 423.54760139 202.18359375 425.6875 C206.49351388 429.55505856 210.98523602 433.10040148 215.625 436.5625 C216.47570068 437.19768555 217.32640137 437.83287109 218.20288086 438.48730469 C234.60695664 450.60555086 251.65956391 461.78756092 269.5625 471.5625 C270.87371826 472.28083008 270.87371826 472.28083008 272.21142578 473.01367188 C294.81908018 485.31095657 318.16903254 495.37700167 342.5625 503.5625 C343.58891602 503.90909668 344.61533203 504.25569336 345.67285156 504.61279297 C437.15432226 535.13050702 537.10038948 531.58854048 672.95162964 480.4367218 C704.1891065 464.78154393 732.76504283 445.98937835 759.5625 423.5625 C760.19591309 423.03350098 760.82932617 422.50450195 761.48193359 421.95947266 C767.82759139 416.64187324 774.02751256 411.29197014 779.7890625 405.3359375 C781.55556639 403.56943361 783.39715542 401.97763526 785.3125 400.375 C790.68788278 395.74795482 795.34107321 390.43890437 800.08837891 385.18505859 C801.43587009 383.70188098 802.80104772 382.23482141 804.16796875 380.76953125 C810.25410383 374.21895343 815.79868503 367.35324702 821.24072266 360.26953125 C822.44967832 358.70820542 823.68265565 357.1655563 824.91796875 355.625 C837.08974962 340.29304152 847.95212529 323.61570277 857.5625 306.5625 C858.04251465 305.71316895 858.5225293 304.86383789 859.01708984 303.98876953 C894.38172779 241.01079608 913.40123018 170.97130022 915.0625 98.8125 C915.89497421 63.45689257 925.05533499 34.11060749 950.5625 8.5625 C975.25521157 -14.2200862 1005.47993087 -23.92593299 1038.63769531 -22.6328125 C1068.0615077 -20.66795024 1095.13751066 -6.10136029 1115.08984375 15.26953125 C1146.4345485 51.34733471 1144.95442283 94.64698334 1141.921875 139.66113281 C1136.28700031 218.94460237 1115.80019002 296.79081399 1045.5625 437.5625 C1045.01706543 438.45727051 1044.47163086 439.35204102 1043.90966797 440.27392578 C1036.28585718 452.71735926 1028.07290655 464.71088452 1019.5625 476.5625 C1018.98209961 477.37251465 1018.40169922 478.1825293 1017.80371094 479.01708984 C1009.95603687 489.92978234 1001.72828628 500.43658331 993.08886719 510.73193359 C990.98580176 513.25413203 988.93267503 515.81572091 986.875 518.375 C982.80701742 523.35960435 978.48891957 528.08032951 974.11328125 532.79296875 C972.0669649 535.01477318 970.08185577 537.26283738 968.125 539.5625 C964.59148445 543.65079456 960.74769032 547.40755846 956.90356445 551.19995117 C954.24608665 553.83395968 951.68872839 556.48446464 949.3125 559.375 C946.77679977 562.4383604 943.925568 564.91146719 940.8984375 567.48046875 C938.00083873 570.06311114 935.28772358 572.80029975 932.5625 575.5625 C928.05655575 580.1122791 923.45274503 584.42460036 918.5625 588.5625 C917.52511915 589.46247941 916.48875167 590.36362757 915.453125 591.265625 C907.96986956 597.76440907 900.3279511 604.00275189 892.48876953 610.06591797 C890.4101239 611.68088599 888.3432301 613.31015255 886.27734375 614.94140625 C871.53892151 626.54805408 856.28541408 637.33299526 840.5625 647.5625 C839.85963867 648.02092285 839.15677734 648.4793457 838.43261719 648.95166016 C801.20298455 673.13046553 760.99016137 693.61843606 719.5625 709.5625 C718.3863916 710.0172168 717.2102832 710.47193359 715.99853516 710.94042969 C663.61150283 731.05085795 608.44375803 744.53291025 552.60412598 750.34960938 C551.22846812 750.49305615 549.85306247 750.63893995 548.47790527 750.78710938 C502.43901468 755.73258497 454.57651861 755.8146985 408.5625 750.5625 C407.80588074 750.47764343 407.04926147 750.39278687 406.26971436 750.30535889 C330.24374953 741.72342125 256.8218051 720.07958824 57.3984375 602 C54.6630756 599.64894514 51.87566038 597.38197681 49.0625 595.125 C43.26442544 590.40720717 37.82779952 585.33922928 32.37573242 580.23217773 C30.28126929 578.30353449 28.14706253 576.42285222 26.015625 574.53515625 C20.02566712 569.15529189 14.33817656 563.48891316 8.65698242 557.78735352 C6.8707533 555.9957405 5.07920653 554.20956945 3.28710938 552.42382812 C-2.50314514 546.63693595 -8.1311865 540.80166917 -13.4375 534.5625 C-15.05717817 532.78679779 -16.68161718 531.01541693 -18.3125 529.25 C-22.35152153 524.81618689 -26.21256878 520.28195416 -29.9765625 515.61328125 C-31.77030236 513.38961326 -33.57622383 511.18051522 -35.3984375 508.98046875 C-43.80991994 498.79127523 -51.72950801 488.2921945 -59.4375 477.5625 C-60.02708496 476.74201172 -60.61666992 475.92152344 -61.22412109 475.07617188 C-80.00905078 448.82550258 -96.42360656 421.12434834 -111.4375 392.5625 C-111.90897461 391.6662793 -112.38044922 390.77005859 -112.86621094 389.84667969 C-153.73556502 311.55967707 -176.50079039 223.71954637 -178.98046875 55.171875 C-173.2962062 37.41089643 -163.2878392 22.86571459 -150.4375 9.5625 C-149.73496094 8.80839844 -149.03242188 8.05429687 -148.30859375 7.27734375 C-110.223852 -32.65393093 -42.26267604 -33.03056618 0 0 Z " fill="#FE679A" transform="translate(507.4375,461.4375)"/>
<path d="M0 0 C0.63164063 0.46664063 1.26328125 0.93328125 1.9140625 1.4140625 C17.69092382 13.6018748 26.73842795 33.3575462 32 52 C32.4021875 53.39412109 32.4021875 53.39412109 32.8125 54.81640625 C38.41860061 79.07057765 32.41496902 105.48507644 19.85644531 126.48046875 C5.87153204 148.84645538 -15.97634898 163.66035973 -41.33203125 170.421875 C-65.75689616 175.71452508 -92.40560096 171.95120201 -113.875 159.125 C-137.19577443 143.95210108 -152.66579131 123.28756629 -159.30859375 96.26953125 C-159.53675781 95.19058594 -159.76492188 94.11164063 -160 93 C-160.28810547 91.65808594 -160.28810547 91.65808594 -160.58203125 90.2890625 C-163.7743677 65.1680598 -158.95076953 39.09987067 -144.0546875 18.28125 C-142.09762644 15.79463124 -140.07104484 13.39213707 -138 11 C-137.39671875 10.25234375 -136.7934375 9.5046875 -136.171875 8.734375 C-121.73575762 -8.61322824 -98.89029057 -19.87204463 -76.63671875 -22.71875 C-48.01933333 -24.93190977 -22.60633283 -18.26157216 0 0 Z " fill="#FE689A" transform="translate(873,283)"/>
<path d="M0 0 C1.06863281 0.53496094 2.13726563 1.06992187 3.23828125 1.62109375 C11.23603065 5.94672475 17.63079776 11.61549768 24 18 C24.88945313 18.87785156 25.77890625 19.75570313 26.6953125 20.66015625 C44.47089294 39.11523136 52.55491684 64.89789634 52.21875 90.15625 C51.52638818 111.75793893 43.52939728 132.2215167 30 149 C29.32324219 149.84175781 28.64648438 150.68351563 27.94921875 151.55078125 C12.58007338 169.61725378 -9.59880737 180.88316356 -33 184 C-47.6353168 185.0638316 -62.02916785 184.68928394 -76 180 C-76.9590625 179.68651611 -76.9590625 179.68651611 -77.9375 179.36669922 C-92.33007332 174.5244398 -104.12090979 166.54465163 -115 156 C-115.59941406 155.4740625 -116.19882813 154.948125 -116.81640625 154.40625 C-127.31194023 144.86042791 -134.30397676 131.20015269 -139 118 C-139.22445801 117.3699707 -139.44891602 116.73994141 -139.68017578 116.09082031 C-145.49445384 98.76846619 -145.70879347 76.34180659 -140 59 C-139.70198486 58.05906494 -139.70198486 58.05906494 -139.39794922 57.09912109 C-134.70846625 42.53186576 -127.12863156 30.48282589 -117 19 C-116.46117187 18.37738281 -115.92234375 17.75476563 -115.3671875 17.11328125 C-86.20610124 -14.3191459 -36.91404269 -18.7861589 0 0 Z " fill="#FE689A" transform="translate(1211,271)"/>
<path d="M0 0 C0.33 0 0.66 0 1 0 C2.76631761 8.88806912 3.33393729 17.51551784 3.5 26.5625 C3.56776986 29.31273701 3.64544079 32.06262672 3.7265625 34.8125 C3.74679474 35.50102554 3.76702698 36.18955109 3.78787231 36.89894104 C4.29349992 53.0827229 5.60438532 69.20352624 8.12255859 85.20141602 C8.25098145 86.04115967 8.3794043 86.88090332 8.51171875 87.74609375 C8.68900513 88.83942017 8.68900513 88.83942017 8.86987305 89.95483398 C9.01160208 92.18234633 8.64980556 93.87594622 8 96 C5.68957663 90.11495933 4.5886064 84.69527847 4.2109375 78.3828125 C4.07960156 75.85323589 4.07960156 75.85323589 3 73 C2.86217159 71.11729227 2.77520091 69.23065179 2.71875 67.34375 C2.68136719 66.23902344 2.64398437 65.13429688 2.60546875 63.99609375 C2.53515625 61.66536458 2.46484375 59.33463542 2.39453125 57.00390625 C2.35714844 55.89917969 2.31976562 54.79445313 2.28125 53.65625 C2.25095703 52.64369141 2.22066406 51.63113281 2.18945312 50.58789062 C2.09827803 47.88463683 2.09827803 47.88463683 1 45 C0.88624128 43.51229395 0.82392798 42.02032676 0.79467773 40.52856445 C0.77473251 39.62785721 0.75478729 38.72714996 0.73423767 37.79914856 C0.71752518 36.83031235 0.70081268 35.86147614 0.68359375 34.86328125 C0.66281265 33.86870407 0.64203156 32.87412689 0.62062073 31.84941101 C0.55520588 28.67051133 0.4962776 25.49152866 0.4375 22.3125 C0.39430712 20.15819452 0.35069258 18.00389746 0.30664062 15.84960938 C0.19953274 10.56649412 0.09775127 5.28329621 0 0 Z " fill="#F19AB9" transform="translate(548,528)"/>
<path d="M0 0 C8.58 0 17.16 0 26 0 C26 0.33 26 0.66 26 1 C1.32580747 3.54294099 -23.21484789 4.27664186 -48 4.1875 C-48.71910175 4.18493195 -49.43820351 4.18236389 -50.17909622 4.17971802 C-59.11960451 4.14542825 -68.05982241 4.08502886 -77 4 C-77 3.67 -77 3.34 -77 3 C-69.24858155 2.85499166 -61.49711284 2.71292755 -53.74560547 2.57275391 C-51.11766383 2.52490308 -48.48973365 2.47641847 -45.86181641 2.42724609 C-30.57280653 2.14163363 -15.29185994 1.91925683 0 2 C0 1.34 0 0.68 0 0 Z " fill="#F3AAC4" transform="translate(1032,1211)"/>
<path d="M0 0 C0 0.33 0 0.66 0 1 C-1.01199463 0.97905273 -2.02398926 0.95810547 -3.06665039 0.93652344 C-6.89657895 0.86297743 -10.72644824 0.81779363 -14.55688477 0.78027344 C-16.20054693 0.76041432 -17.84414096 0.73331744 -19.48754883 0.69824219 C-32.81829727 0.42128194 -43.57954066 2.38188479 -56.1875 6.8125 C-59.8609243 7.95668134 -60.61279225 8.10403446 -64 7 C-43.74411697 -1.42404826 -21.7055088 -5.57572703 0 0 Z " fill="#F2A2BF" transform="translate(1187,262)"/>
<path d="M0 0 C-0.99 0.66 -1.98 1.32 -3 2 C-3.763125 1.54625 -4.52625 1.0925 -5.3125 0.625 C-9.16838392 -1.32594843 -13.17889655 -1.89410953 -17.4140625 -2.5703125 C-20 -3 -20 -3 -21.92669678 -3.51976013 C-25.33170478 -4.30846319 -28.7888076 -4.12105817 -32.265625 -4.09765625 C-33.05902283 -4.0962413 -33.85242065 -4.09482635 -34.66986084 -4.09336853 C-37.19661272 -4.08778415 -39.72327504 -4.07523454 -42.25 -4.0625 C-43.96614455 -4.05748298 -45.68229049 -4.05292043 -47.3984375 -4.04882812 C-51.59899269 -4.03781984 -55.79948117 -4.02056596 -60 -4 C-60 -4.33 -60 -4.66 -60 -5 C-39.29375171 -9.23193396 -19.79945962 -7.26348891 0 0 Z " fill="#F2A3C0" transform="translate(847,267)"/>
<path d="M0 0 C0.33 0 0.66 0 1 0 C0.96970703 0.56654297 0.93941406 1.13308594 0.90820312 1.71679688 C-0.3307078 26.1328721 -0.09749939 50.56065188 0 75 C-0.33 75 -0.66 75 -1 75 C-1.72932166 64.08854272 -2.33178966 53.18041746 -2.6875 42.25 C-2.71156921 41.51552643 -2.73563843 40.78105286 -2.76043701 40.02432251 C-3.17511201 26.53420909 -2.86422 13.25352709 0 0 Z " fill="#F4A5C2" transform="translate(326,526)"/>
<path d="M0 0 C0.33 0 0.66 0 1 0 C1.34668567 8.92259437 0.1819112 17.51353774 -1.02636719 26.33056641 C-1.37314516 28.86146276 -1.71086628 31.39343486 -2.046875 33.92578125 C-3.21307916 42.64442358 -4.46835452 51.33656257 -6 60 C-6.33 60 -6.66 60 -7 60 C-7.20689692 52.69963724 -6.60864146 45.72080898 -5.5625 38.5 C-5.42779297 37.51257813 -5.29308594 36.52515625 -5.15429688 35.5078125 C-4.13921131 28.27842262 -4.13921131 28.27842262 -3 26 C-2.87261769 24.63498476 -2.79815533 23.26476294 -2.75390625 21.89453125 C-2.72103516 21.07533203 -2.68816406 20.25613281 -2.65429688 19.41210938 C-2.59379254 17.69867814 -2.53642617 15.9851328 -2.48242188 14.27148438 C-2.27203887 9.18656688 -1.61491193 4.83165959 0 0 Z " fill="#F2A1BE" transform="translate(1647,608)"/>
<path d="M0 0 C2.36685076 3.55027614 2.31621709 5.40718227 2.5 9.625 C2.78384332 14.56184627 3.34622975 19.09100907 4.5234375 23.87890625 C6.44708978 32.44073566 6.11306784 41.28121296 6 50 C5.67 50 5.34 50 5 50 C4.44556192 45.92936878 3.89436566 41.85831193 3.34594727 37.78686523 C3.15962584 36.40686698 2.97247584 35.02698029 2.78442383 33.6472168 C1.25552856 22.42308701 -0.1859574 11.34340149 0 0 Z " fill="#F29EBC" transform="translate(326,604)"/>
<path d="M0 0 C9.88038023 14.82057035 9.29249657 33.99694921 9 51 C8.67 51 8.34 51 8 51 C7.98018066 50.42032471 7.96036133 49.84064941 7.93994141 49.2434082 C7.84427399 46.59934063 7.73476547 43.9560183 7.625 41.3125 C7.5940625 40.40048828 7.563125 39.48847656 7.53125 38.54882812 C7.32727724 33.87445228 6.88686745 30.32153513 5 26 C4.8046875 23.10546875 4.8046875 23.10546875 4.875 20.1875 C4.89304687 19.21167969 4.91109375 18.23585938 4.9296875 17.23046875 C4.95289063 16.49441406 4.97609375 15.75835937 5 15 C4.34 15 3.68 15 3 15 C1.094753 9.89665983 -0.42589023 5.53657294 0 0 Z " fill="#F5B0C8" transform="translate(898,317)"/>
<path d="M0 0 C9.78808833 0.3891884 19.32823758 1.92508979 28.97631836 3.54003906 C34.9769502 4.54068989 40.9464357 5.3921107 47 6 C47 6.33 47 6.66 47 7 C38.703473 7.20401296 30.97881531 7.08061216 22.8046875 5.5078125 C19.17150388 4.84999374 15.54173695 4.53356477 11.86328125 4.24609375 C10 4 10 4 9 3 C7.48530552 2.76807135 5.96245438 2.58784762 4.4375 2.4375 C3.61121094 2.35371094 2.78492188 2.26992188 1.93359375 2.18359375 C1.29550781 2.12300781 0.65742187 2.06242188 0 2 C0 1.34 0 0.68 0 0 Z " fill="#F19AB9" transform="translate(895,979)"/>
<path d="M0 0 C0.33 0 0.66 0 1 0 C1.45334685 13.60040553 0.13286638 26.57126153 -2 40 C-2.66 40 -3.32 40 -4 40 C-4.33 40.66 -4.66 41.32 -5 42 C-4.89042969 41.14664063 -4.78085938 40.29328125 -4.66796875 39.4140625 C-3.00360843 26.28861935 -1.50167361 13.14491043 0 0 Z " fill="#F19FBC" transform="translate(1421,590)"/>
<path d="M0 0 C0.33 1.32 0.66 2.64 1 4 C0.01 4.495 0.01 4.495 -1 5 C-1.309375 5.78375 -1.61875 6.5675 -1.9375 7.375 C-3.01272488 10.03143794 -3.97971028 11.06388902 -6 13 C-6.33 13.66 -6.66 14.32 -7 15 C-8.08473462 17.16946923 -9.10826568 18.48661254 -11 20 C-11.99 20 -12.98 20 -14 20 C-14 20.99 -14 21.98 -14 23 C-15.32 23.33 -16.64 23.66 -18 24 C-12 16 -6 8 0 0 Z " fill="#F395B6" transform="translate(1340,807)"/>
<path d="M0 0 C3.64616671 0.13816959 7.29183074 0.28681534 10.9375 0.4375 C11.97841797 0.47681641 13.01933594 0.51613281 14.09179688 0.55664062 C15.08115234 0.59853516 16.07050781 0.64042969 17.08984375 0.68359375 C18.46450806 0.73858032 18.46450806 0.73858032 19.86694336 0.79467773 C22 1 22 1 23 2 C26.17660368 2.44629969 29.35172631 2.82156316 32.54101562 3.16210938 C37.78671875 3.78671875 37.78671875 3.78671875 40 6 C34.58851145 6.10528188 29.58182588 5.77126224 24.21875 4.90625 C23.51979614 4.79526978 22.82084229 4.68428955 22.10070801 4.56994629 C19.89949661 4.2190893 17.6997802 3.85970945 15.5 3.5 C13.99488277 3.25854601 12.48967502 3.01765555 10.984375 2.77734375 C7.32184903 2.19139726 3.66061113 1.59780654 0 1 C0 0.67 0 0.34 0 0 Z " fill="#F19AB9" transform="translate(868,1204)"/>
<path d="M0 0 C0.95068359 -0.00386719 1.90136719 -0.00773437 2.88085938 -0.01171875 C8.36822608 -0.00415518 13.63426253 0.3174936 19.0625 1.125 C19.0625 1.455 19.0625 1.785 19.0625 2.125 C-6.9076529 3.52527356 -6.9076529 3.52527356 -17.9375 2.125 C-17.9375 1.795 -17.9375 1.465 -17.9375 1.125 C-11.93382072 0.07581333 -6.08620006 -0.02465712 0 0 Z " fill="#F2A2BF" transform="translate(436.9375,437.875)"/>
<path d="M0 0 C1.58409994 0.11487748 3.16728963 0.24234508 4.75 0.375 C6.07257812 0.47941406 6.07257812 0.47941406 7.421875 0.5859375 C10.02883607 1.00463125 11.68026073 1.79170639 14 3 C15.55042923 3.38559898 17.11520691 3.71643023 18.6875 4 C19.56277344 4.16628906 20.43804688 4.33257813 21.33984375 4.50390625 C22.21769531 4.66761719 23.09554687 4.83132813 24 5 C29.47194454 6.04185824 34.08590937 7.22794888 39 10 C34.60495235 11.36575504 31.23725811 10.19779975 26.953125 8.91015625 C25.79632233 8.57509315 25.79632233 8.57509315 24.6161499 8.23326111 C22.15795035 7.51894086 19.70405011 6.79093355 17.25 6.0625 C15.58229627 5.57526383 13.91433012 5.08892493 12.24609375 4.60351562 C8.16094647 3.41272707 4.07960041 2.20964896 0 1 C0 0.67 0 0.34 0 0 Z " fill="#F2A3BF" transform="translate(787,1184)"/>
<path d="M0 0 C2.38564077 0.57584432 4.66682784 1.22227595 7 2 C7.33 2.99 7.66 3.98 8 5 C8.99 5.33 9.98 5.66 11 6 C11.33 6.99 11.66 7.98 12 9 C12.99 9.33 13.98 9.66 15 10 C15.12375 10.804375 15.2475 11.60875 15.375 12.4375 C15.58125 13.283125 15.7875 14.12875 16 15 C16.66 15.33 17.32 15.66 18 16 C15 16 15 16 13.2824707 14.63891602 C12.66976318 14.01686279 12.05705566 13.39480957 11.42578125 12.75390625 C10.75869141 12.08166016 10.09160156 11.40941406 9.40429688 10.71679688 C8.71400391 10.00587891 8.02371094 9.29496094 7.3125 8.5625 C6.2596582 7.50192383 6.2596582 7.50192383 5.18554688 6.41992188 C0 1.15374453 0 1.15374453 0 0 Z M15 8 C15.99 8.495 15.99 8.495 17 9 C16.67 9.66 16.34 10.32 16 11 C15.67 10.01 15.34 9.02 15 8 Z " fill="#F28BB0" transform="translate(501,1003)"/>
<path d="M0 0 C0.66 0 1.32 0 2 0 C1.36617071 6.7394507 -0.22297453 12.99550621 -2.0625 19.5 C-2.34416016 20.51320313 -2.62582031 21.52640625 -2.91601562 22.5703125 C-3.60565183 25.04832734 -4.30041189 27.52478 -5 30 C-5.33 30 -5.66 30 -6 30 C-6.20894115 24.6511065 -5.51677322 20.15252212 -4.125 15 C-3.95097656 14.32710937 -3.77695313 13.65421875 -3.59765625 12.9609375 C-2.46655964 8.62087792 -1.24541874 4.30847564 0 0 Z " fill="#F297B8" transform="translate(1630,707)"/>
<path d="M0 0 C0.33 0 0.66 0 1 0 C7.40905744 21.59167894 7.40905744 21.59167894 7 31 C3.95625923 26.43438884 3.12702886 21.34845252 1.8125 16.0625 C1.52697266 14.96486328 1.24144531 13.86722656 0.94726562 12.73632812 C0.54991211 11.15174805 0.54991211 11.15174805 0.14453125 9.53515625 C-0.09934326 8.569729 -0.34321777 7.60430176 -0.59448242 6.60961914 C-0.99929002 4.00456894 -0.85203254 2.46583532 0 0 Z " fill="#F19CBA" transform="translate(342,701)"/>
<path d="M0 0 C9.84729504 0.66761322 20.14334177 2.71467342 28 9 C26 10 26 10 23.38623047 9.28735352 C22.30744629 8.90506592 21.22866211 8.52277832 20.1171875 8.12890625 C18.95058594 7.71962891 17.78398438 7.31035156 16.58203125 6.88867188 C15.35871094 6.45103516 14.13539063 6.01339844 12.875 5.5625 C11.02841797 4.9118457 11.02841797 4.9118457 9.14453125 4.24804688 C6.09391626 3.17205477 3.04595357 2.08910366 0 1 C0 0.67 0 0.34 0 0 Z " fill="#F19DBA" transform="translate(758,1174)"/>
<path d="M0 0 C1.38978246 2.77956492 0.61356169 4.12046386 -0.25 7.0625 C-0.50265625 7.96097656 -0.7553125 8.85945313 -1.015625 9.78515625 C-1.34046875 10.51605469 -1.6653125 11.24695313 -2 12 C-2.99 12.33 -3.98 12.66 -5 13 C-5.10957031 13.69867188 -5.21914063 14.39734375 -5.33203125 15.1171875 C-5.49058594 16.02726562 -5.64914062 16.93734375 -5.8125 17.875 C-5.96332031 18.77992188 -6.11414063 19.68484375 -6.26953125 20.6171875 C-7 23 -7 23 -10 25 C-9.49315064 19.02868094 -7.63648968 14.47172732 -5 9.125 C-4.63132812 8.35414063 -4.26265625 7.58328125 -3.8828125 6.7890625 C-1.17426658 1.17426658 -1.17426658 1.17426658 0 0 Z " fill="#F396B8" transform="translate(726,306)"/>
<path d="M0 0 C0 0.66 0 1.32 0 2 C-0.99 2 -1.98 2 -3 2 C-3.33 2.99 -3.66 3.98 -4 5 C-5.98 5.33 -7.96 5.66 -10 6 C-10 6.66 -10 7.32 -10 8 C-14.47058824 12 -14.47058824 12 -17 12 C-17 12.66 -17 13.32 -17 14 C-18.65 14 -20.3 14 -22 14 C-18.17753144 9.83742785 -14.18068431 7.02530676 -9.3125 4.1875 C-8.63638672 3.78080078 -7.96027344 3.37410156 -7.26367188 2.95507812 C-2.27232143 0 -2.27232143 0 0 0 Z " fill="#F3A4C0" transform="translate(389,449)"/>
<path d="M0 0 C7.26236302 1.30960645 13.3830748 3.75956186 20 7 C19.67 7.66 19.34 8.32 19 9 C11.9151671 8.33161954 11.9151671 8.33161954 9 5 C6.89667109 4.28552357 6.89667109 4.28552357 5 4 C5 3.34 5 2.68 5 2 C3.35 2 1.7 2 0 2 C0 1.34 0 0.68 0 0 Z " fill="#F290B3" transform="translate(1569,444)"/>
<path d="M0 0 C4.8968412 1.35085275 8.29341999 3.41687013 12.3125 6.5 C13.36050781 7.2940625 14.40851563 8.088125 15.48828125 8.90625 C18 11 18 11 19 13 C16.625 12.6875 16.625 12.6875 14 12 C13.34 11.01 12.68 10.02 12 9 C9.111036 7.39502 6.32318722 6.10772907 3.1875 5.0625 C1 4 1 4 0.1875 1.875 C0.125625 1.25625 0.06375 0.6375 0 0 Z " fill="#F39BBA" transform="translate(1211,272)"/>
<path d="M0 0 C0.66 0.33 1.32 0.66 2 1 C1.34 2.32 0.68 3.64 0 5 C-1.32 5 -2.64 5 -4 5 C-4 5.99 -4 6.98 -4 8 C-7.66486096 10.91033076 -10.39374606 11.32136655 -15 11 C-12.31935789 8.01837352 -9.15182515 6.00281004 -5.8125 3.8125 C-4.72582031 3.09707031 -3.63914062 2.38164063 -2.51953125 1.64453125 C-1.68808594 1.10183594 -0.85664062 0.55914063 0 0 Z " fill="#F58CB0" transform="translate(1233,911)"/>
<path d="M0 0 C0.99 0.33 1.98 0.66 3 1 C4.16796875 3.546875 4.16796875 3.546875 5.1875 6.75 C5.53167969 7.79671875 5.87585938 8.8434375 6.23046875 9.921875 C6.94272623 12.77090493 7.15663753 15.08330116 7 18 C7.66 18 8.32 18 9 18 C9 20.31 9 22.62 9 25 C7.24027922 22.36041882 6.30410254 20.35251231 5.2734375 17.40234375 C4.9640625 16.51869141 4.6546875 15.63503906 4.3359375 14.72460938 C4.01882813 13.80486328 3.70171875 12.88511719 3.375 11.9375 C2.88773437 10.55208008 2.88773437 10.55208008 2.390625 9.13867188 C0 2.26311384 0 2.26311384 0 0 Z " fill="#F39DBB" transform="translate(358,762)"/>
<path d="M0 0 C0.33 0 0.66 0 1 0 C1.13686373 5.56786523 0.72473575 10.61140596 -0.375 16.0625 C-0.50132813 16.73087891 -0.62765625 17.39925781 -0.7578125 18.08789062 C-1.61100899 22.47758659 -2.72029215 26.72132462 -4 31 C-4.66 31 -5.32 31 -6 31 C-5.29030646 24.21304565 -3.92442573 17.65576279 -2.4375 11 C-2.20353516 9.93910156 -1.96957031 8.87820313 -1.72851562 7.78515625 C-1.15557205 5.18937106 -0.57932765 2.59436646 0 0 Z " fill="#F1A5C0" transform="translate(1415,633)"/>
<path d="M0 0 C0.66 0.33 1.32 0.66 2 1 C0.1875 4 0.1875 4 -2 7 C-2.99 7 -3.98 7 -5 7 C-5.0825 7.556875 -5.165 8.11375 -5.25 8.6875 C-6.252854 11.77963318 -7.77497476 13.64783046 -10 16 C-12.25 16.8125 -12.25 16.8125 -14 17 C-12.44363758 13.37409619 -10.2207077 10.83141085 -7.5625 7.9375 C-6.78003906 7.08027344 -5.99757813 6.22304688 -5.19140625 5.33984375 C-3.49079133 3.52403566 -1.77582096 1.74156074 0 0 Z " fill="#F5A1BF" transform="translate(1461,467)"/>
<path d="M0 0 C0.66 0 1.32 0 2 0 C0.63353125 8.6678988 -2.11684805 16.74670244 -5 25 C-5.33 25 -5.66 25 -6 25 C-5.76919007 16.08234348 -2.99681008 8.29375483 0 0 Z " fill="#F19AB9" transform="translate(1622,737)"/>
<path d="M0 0 C1.32 0 2.64 0 4 0 C2.91999975 3.24000075 2.50216138 3.6336358 -0.16015625 5.48046875 C-0.78857422 5.92197266 -1.41699219 6.36347656 -2.06445312 6.81835938 C-3.05348633 7.49608398 -3.05348633 7.49608398 -4.0625 8.1875 C-4.72572266 8.65091797 -5.38894531 9.11433594 -6.07226562 9.59179688 C-7.71007505 10.73472863 -9.35442897 11.8682718 -11 13 C-11.33 11.68 -11.66 10.36 -12 9 C-10.68 9 -9.36 9 -8 9 C-8 8.01 -8 7.02 -8 6 C-5.69 5.34 -3.38 4.68 -1 4 C-0.67 2.68 -0.34 1.36 0 0 Z " fill="#F39AB9" transform="translate(1377,1084)"/>
<path d="M0 0 C1.75687372 1.05109514 3.50523126 2.11643123 5.25 3.1875 C6.22453125 3.77917969 7.1990625 4.37085938 8.203125 4.98046875 C11.06737409 7.04864861 12.93467302 9.15279924 15 12 C14.01 12.495 14.01 12.495 13 13 C13 12.34 13 11.68 13 11 C11.68 11 10.36 11 9 11 C9 10.01 9 9.02 9 8 C8.401875 7.896875 7.80375 7.79375 7.1875 7.6875 C4.68462276 6.90088144 3.78685245 5.86454169 2 4 C1.01 3.67 0.02 3.34 -1 3 C-0.67 2.01 -0.34 1.02 0 0 Z " fill="#F293B5" transform="translate(860,274)"/>
<path d="M0 0 C4.52615993 3.67832017 8.39424999 7.41086363 12 12 C11.01 12.495 11.01 12.495 10 13 C7.375 12.0625 7.375 12.0625 5 11 C5 9.68 5 8.36 5 7 C4.34 7 3.68 7 3 7 C3 6.34 3 5.68 3 5 C2.34 5 1.68 5 1 5 C0.67 3.35 0.34 1.7 0 0 Z " fill="#F3A0BD" transform="translate(676,857)"/>
<path d="M0 0 C0.99134419 2.61739045 1.09832287 3.734787 0.109375 6.40234375 C-0.33921875 7.23894531 -0.7878125 8.07554687 -1.25 8.9375 C-1.71535156 9.81019531 -2.18070313 10.68289063 -2.66015625 11.58203125 C-3.32337891 12.77892578 -3.32337891 12.77892578 -4 14 C-4.556875 15.03125 -5.11375 16.0625 -5.6875 17.125 C-6.120625 17.74375 -6.55375 18.3625 -7 19 C-7.66 19 -8.32 19 -9 19 C-7.6077541 14.37324343 -5.70479016 10.35313769 -3.375 6.125 C-2.74335937 4.97257813 -2.11171875 3.82015625 -1.4609375 2.6328125 C-0.97882813 1.76398437 -0.49671875 0.89515625 0 0 Z " fill="#F49BBB" transform="translate(1377,746)"/>
<path d="M0 0 C-1.16279392 3.48838175 -1.81767437 3.7762603 -4.875 5.5625 C-5.57367187 5.97628906 -6.27234375 6.39007813 -6.9921875 6.81640625 C-7.65476562 7.20699219 -8.31734375 7.59757812 -9 8 C-9.99 8.66 -10.98 9.32 -12 10 C-14.1875 9.625 -14.1875 9.625 -16 9 C-14.41906946 7.87162591 -12.83515284 6.74743482 -11.25 5.625 C-10.36828125 4.99851562 -9.4865625 4.37203125 -8.578125 3.7265625 C-3.01357466 0 -3.01357466 0 0 0 Z " fill="#F49DBB" transform="translate(767,270)"/>
<path d="M0 0 C0 0.66 0 1.32 0 2 C-14.59681093 6.59225513 -14.59681093 6.59225513 -22 6 C-18.35118324 3.9282933 -14.46766307 2.92431922 -10.4375 1.875 C-9.76525391 1.69324219 -9.09300781 1.51148438 -8.40039062 1.32421875 C-5.51269145 0.56143029 -3.0002579 0 0 0 Z " fill="#F19DBB" transform="translate(1112,970)"/>
<path d="M0 0 C3.74281699 2.38179263 6.97727468 4.74475735 10 8 C9.01 8.495 9.01 8.495 8 9 C7.01 8.67 6.02 8.34 5 8 C4.01 8 3.02 8 2 8 C0.23537317 4.91190305 0 3.76687864 0 0 Z " fill="#F793B6" transform="translate(707,886)"/>
<path d="M0 0 C2.1519437 3.22791555 2.20086443 4.28400809 2 8 C2.66 8 3.32 8 4 8 C4 9.32 4 10.64 4 12 C4.66 12 5.32 12 6 12 C8.10865385 15.47307692 8.10865385 15.47307692 7.55859375 18.140625 C7.28208984 19.06101562 7.28208984 19.06101562 7 20 C5.63092584 17.42362412 4.27971545 14.84031896 2.9375 12.25 C2.54755859 11.52039063 2.15761719 10.79078125 1.75585938 10.0390625 C1.39169922 9.33007812 1.02753906 8.62109375 0.65234375 7.890625 C0.31195068 7.24125977 -0.02844238 6.59189453 -0.37915039 5.92285156 C-1.13558044 3.58008982 -0.78821819 2.29543427 0 0 Z " fill="#F2A3C0" transform="translate(1074,388)"/>
<path d="M0 0 C-3.35846491 2.2389766 -6.58891321 3.12872154 -10.4375 4.125 C-11.44006836 4.39763672 -11.44006836 4.39763672 -12.46289062 4.67578125 C-15.7948763 5.55418382 -18.52536772 6 -22 6 C-22 5.34 -22 4.68 -22 4 C-19.24921116 3.08307039 -17.64051087 2.89113917 -14.8125 2.9375 C-12.9253125 2.9684375 -12.9253125 2.9684375 -11 3 C-11 2.34 -11 1.68 -11 1 C-7.26562152 0.12132271 -3.83225427 -0.08912219 0 0 Z " fill="#F4A8C3" transform="translate(1174,1188)"/>
<path d="M0 0 C5.03681497 3.07122864 8.94510767 6.72916666 13 11 C12.67 11.66 12.34 12.32 12 13 C10.68 12.67 9.36 12.34 8 12 C8 10.68 8 9.36 8 8 C5.525 7.01 5.525 7.01 3 6 C3 5.34 3 4.68 3 4 C2.34 4 1.68 4 1 4 C0.67 2.68 0.34 1.36 0 0 Z " fill="#F2A4BF" transform="translate(1609,465)"/>
<path d="M0 0 C2.31 0 4.62 0 7 0 C4.55436688 2.44563312 2.24474828 3.34131255 -0.9375 4.6875 C-1.99839844 5.14511719 -3.05929687 5.60273437 -4.15234375 6.07421875 C-7 7 -7 7 -10 6 C-9 4 -9 4 -6 2 C-2.8125 1.875 -2.8125 1.875 0 2 C0 1.34 0 0.68 0 0 Z " fill="#F49ABA" transform="translate(1242,1161)"/>
<path d="M0 0 C6.17222879 1.24028238 12.06682122 2.89603589 18 5 C15 7 15 7 11.6796875 6.42578125 C10.42414062 6.05839844 9.16859375 5.69101562 7.875 5.3125 C6.61429688 4.95800781 5.35359375 4.60351562 4.0546875 4.23828125 C3.04664063 3.82964844 2.03859375 3.42101562 1 3 C0.67 2.01 0.34 1.02 0 0 Z " fill="#F39FBC" transform="translate(844,964)"/>
<path d="M0 0 C0.33 0.66 0.66 1.32 1 2 C1.66 2.33 2.32 2.66 3 3 C2.2884375 3.6496875 2.2884375 3.6496875 1.5625 4.3125 C-0.23686957 6.02309613 -0.23686957 6.02309613 -1 9 C-1 8.34 -1 7.68 -1 7 C-1.4125 7.474375 -1.825 7.94875 -2.25 8.4375 C-4.182185 10.16266518 -5.48192275 10.56584875 -8 11 C-6.63629701 8.00779732 -5.05091917 5.70973471 -2.875 3.25 C-2.33617187 2.63640625 -1.79734375 2.0228125 -1.2421875 1.390625 C-0.62730469 0.70226562 -0.62730469 0.70226562 0 0 Z " fill="#F693B6" transform="translate(1095,289)"/>
<path d="M0 0 C1.051875 0.5878125 1.051875 0.5878125 2.125 1.1875 C-1.28358586 4.59608586 -6.19701465 5.11758394 -10.875 5.3125 C-11.535 5.27125 -12.195 5.23 -12.875 5.1875 C-4.77990798 -1.35084356 -4.77990798 -1.35084356 0 0 Z " fill="#F696B7" transform="translate(1190.875,938.8125)"/>
<path d="M0 0 C0.99 0 1.98 0 3 0 C1.67726488 3.59758392 0.0805802 6.63737135 -2.0625 9.8125 C-2.58972656 10.60269531 -3.11695313 11.39289062 -3.66015625 12.20703125 C-4.10230469 12.79871094 -4.54445313 13.39039063 -5 14 C-5.33 14 -5.66 14 -6 14 C-6 12.35 -6 10.7 -6 9 C-5.34 9 -4.68 9 -4 9 C-4 8.01 -4 7.02 -4 6 C-3.34 6 -2.68 6 -2 6 C-2 5.01 -2 4.02 -2 3 C-1.34 3 -0.68 3 0 3 C0 2.01 0 1.02 0 0 Z " fill="#F39BBA" transform="translate(1549,899)"/>
<path d="M0 0 C1.90747183 2.86120775 3.00353706 5.35254993 4.1875 8.5625 C4.55230469 9.53316406 4.91710937 10.50382813 5.29296875 11.50390625 C6 14 6 14 5 16 C4.34 15.67 3.68 15.34 3 15 C3 14.01 3 13.02 3 12 C2.34 12 1.68 12 1 12 C0.03929566 9.11788698 -0.10581883 7.30149956 -0.0625 4.3125 C-0.05347656 3.50425781 -0.04445313 2.69601562 -0.03515625 1.86328125 C-0.02355469 1.24839844 -0.01195312 0.63351562 0 0 Z " fill="#F695B7" transform="translate(571,684)"/>
<path d="M0 0 C0.33 0 0.66 0 1 0 C1.69888677 2.74755487 2.3843988 5.49731197 3.0625 8.25 C3.26166016 9.02730469 3.46082031 9.80460938 3.66601562 10.60546875 C3.84970703 11.35957031 4.03339844 12.11367188 4.22265625 12.890625 C4.39547119 13.58188477 4.56828613 14.27314453 4.74633789 14.98535156 C5.03156637 17.25070809 4.68076195 18.8368312 4 21 C0.71376966 13.85602101 -0.13505096 7.83295558 0 0 Z " fill="#F3A1BF" transform="translate(561,646)"/>
<path d="M0 0 C0.66 0.33 1.32 0.66 2 1 C-1.29650658 4.69208738 -4.57427631 6.86616894 -9 9 C-11.21875 8.60546875 -11.21875 8.60546875 -13 8 C-11.20909242 6.8529806 -9.41725003 5.70742065 -7.625 4.5625 C-6.12839844 3.60537109 -6.12839844 3.60537109 -4.6015625 2.62890625 C-2 1 -2 1 0 0 Z " fill="#F49EBC" transform="translate(1121,270)"/>
<path d="M0 0 C6.62177926 0.30656385 11.22125154 1.74288723 17 5 C17 5.66 17 6.32 17 7 C11.27789404 5.13236819 5.62338249 3.14710968 0 1 C0 0.67 0 0.34 0 0 Z " fill="#F29DBB" transform="translate(725,1161)"/>
<path d="M0 0 C1.32 0 2.64 0 4 0 C4 0.66 4 1.32 4 2 C1.87717331 3.00460531 -0.24833021 4.00355602 -2.375 5 C-4.15003906 5.8353125 -4.15003906 5.8353125 -5.9609375 6.6875 C-9 8 -9 8 -11 8 C-11 7.34 -11 6.68 -11 6 C-10.01 6 -9.02 6 -8 6 C-8 5.34 -8 4.68 -8 4 C-6.68 4 -5.36 4 -4 4 C-4 3.34 -4 2.68 -4 2 C-2.68 2 -1.36 2 0 2 C0 1.34 0 0.68 0 0 Z " fill="#F29BB9" transform="translate(1269,1149)"/>
<path d="M0 0 C-2.48057628 2.48057628 -3.36192464 2.29019005 -6.7890625 2.4140625 C-7.73007813 2.45273437 -8.67109375 2.49140625 -9.640625 2.53125 C-10.62546875 2.5621875 -11.6103125 2.593125 -12.625 2.625 C-14.11386719 2.68300781 -14.11386719 2.68300781 -15.6328125 2.7421875 C-18.08835385 2.8366314 -20.5438841 2.92219875 -23 3 C-23 2.67 -23 2.34 -23 2 C-19.91879316 1.4660256 -16.83482141 0.95014449 -13.75 0.4375 C-12.44095703 0.21030273 -12.44095703 0.21030273 -11.10546875 -0.02148438 C-10.26113281 -0.16005859 -9.41679688 -0.29863281 -8.546875 -0.44140625 C-7.77182617 -0.57232666 -6.99677734 -0.70324707 -6.19824219 -0.83813477 C-3.88826153 -1.00822774 -2.19914787 -0.68559092 0 0 Z " fill="#F4A7C4" transform="translate(1071,981)"/>
<path d="M0 0 C0.66 0.33 1.32 0.66 2 1 C-2.18596495 6.47101802 -5.06035434 9.86699663 -12 11 C-8.19588166 7.08060535 -4.18423892 3.50897269 0 0 Z " fill="#F5A3BF" transform="translate(1262,889)"/>
<path d="M0 0 C0.66 0.33 1.32 0.66 2 1 C1.401875 1.556875 0.80375 2.11375 0.1875 2.6875 C-2.07695315 4.89304522 -2.07695315 4.89304522 -3.4375 7.5625 C-5.27437712 10.42802831 -6.92899371 11.58261248 -10 13 C-10.66 12.67 -11.32 12.34 -12 12 C-8.04 8.04 -4.08 4.08 0 0 Z " fill="#F4A9C3" transform="translate(1289,865)"/>
<path d="M0 0 C1.1796875 1.546875 1.1796875 1.546875 2 4 C1.16272284 6.58794758 0.28640033 8.81847251 -0.875 11.25 C-1.17019531 11.8996875 -1.46539063 12.549375 -1.76953125 13.21875 C-2.49903434 14.81895032 -3.24769825 16.41039065 -4 18 C-4.33 18 -4.66 18 -5 18 C-5.38281159 12.76824163 -4.21854707 9.62197306 -2 5 C-1.34 5 -0.68 5 0 5 C0 3.35 0 1.7 0 0 Z " fill="#F39EBC" transform="translate(1599,801)"/>
<path d="M0 0 C1.98 0 3.96 0 6 0 C3.14160085 2.30259931 0.39581962 3.86268345 -3 5.25 C-4.2684375 5.78367187 -4.2684375 5.78367187 -5.5625 6.328125 C-8.18882935 7.05204912 -9.47212957 6.9128421 -12 6 C-12 5.67 -12 5.34 -12 5 C-8.17679443 3.57741188 -5.08718695 2.75957724 -1 3 C-0.67 2.01 -0.34 1.02 0 0 Z " fill="#F398B8" transform="translate(848,444)"/>
<path d="M0 0 C1.41750563 0.11509661 2.83401169 0.24253658 4.25 0.375 C5.03890625 0.44460938 5.8278125 0.51421875 6.640625 0.5859375 C9.085877 1.01507113 10.84836903 1.78600638 13 3 C11.35 3 9.7 3 8 3 C8.33 3.99 8.66 4.98 9 6 C8.01 6.33 7.02 6.66 6 7 C5.34 6.67 4.68 6.34 4 6 C4 5.01 4 4.02 4 3 C2.68 2.34 1.36 1.68 0 1 C0 0.67 0 0.34 0 0 Z " fill="#F687AF" transform="translate(456,440)"/>
<path d="M0 0 C0.66 0.33 1.32 0.66 2 1 C0.67726488 4.59758392 -0.9194198 7.63737135 -3.0625 10.8125 C-3.58972656 11.60269531 -4.11695313 12.39289063 -4.66015625 13.20703125 C-5.10230469 13.79871094 -5.54445313 14.39039063 -6 15 C-6.33 15 -6.66 15 -7 15 C-7 13.35 -7 11.7 -7 10 C-6.01 10 -5.02 10 -4 10 C-4 8.68 -4 7.36 -4 6 C-3.34 6 -2.68 6 -2 6 C-1.855625 5.38125 -1.71125 4.7625 -1.5625 4.125 C-1 2 -1 2 0 0 Z " fill="#F29DBB" transform="translate(893,403)"/>
<path d="M0 0 C1.88153009 2.82229513 3.00034705 5.27890171 4.1875 8.4375 C4.55230469 9.38496094 4.91710937 10.33242188 5.29296875 11.30859375 C6.01860758 14.07083217 5.97849698 15.36366738 5 18 C5 17.01 5 16.02 5 15 C4.34 15 3.68 15 3 15 C1.094753 9.89665983 -0.42589023 5.53657294 0 0 Z " fill="#F29DBB" transform="translate(898,317)"/>
<path d="M0 0 C0.33 0.66 0.66 1.32 1 2 C-1.24985226 6.75930285 -2.95985219 9.8778325 -8 12 C-8.66 11.67 -9.32 11.34 -10 11 C-6.7 7.37 -3.4 3.74 0 0 Z " fill="#F39BBB" transform="translate(1317,836)"/>
<path d="M0 0 C1.11375 0.2475 1.11375 0.2475 2.25 0.5 C5.19006578 1.11925696 5.19006578 1.11925696 9 1 C8.67 2.32 8.34 3.64 8 5 C8.66 5 9.32 5 10 5 C10.66 6.32 11.32 7.64 12 9 C8.98472262 7.59422879 6.4052059 5.93873852 3.75 3.9375 C3.04359375 3.41027344 2.3371875 2.88304687 1.609375 2.33984375 C1.07828125 1.89769531 0.5471875 1.45554687 0 1 C0 0.67 0 0.34 0 0 Z " fill="#F598B8" transform="translate(579,1074)"/>
<path d="M0 0 C3.83663072 1.34929464 6.65172569 3.07751025 9.8125 5.625 C10.99779297 6.57246094 10.99779297 6.57246094 12.20703125 7.5390625 C12.79871094 8.02117187 13.39039063 8.50328125 14 9 C13.34 9.66 12.68 10.32 12 11 C10 9 10 9 9 7 C8.05125 6.731875 7.1025 6.46375 6.125 6.1875 C2.42215244 4.78041793 1.65940314 3.50318441 0 0 Z " fill="#F4A2BE" transform="translate(495,454)"/>
<path d="M0 0 C0.66 0 1.32 0 2 0 C0.34292168 5.64913063 -1.47762012 10.26300637 -5 15 C-5.33 13.68 -5.66 12.36 -6 11 C-5.34 11 -4.68 11 -4 11 C-4 9.68 -4 8.36 -4 7 C-3.34 7 -2.68 7 -2 7 C-2.061875 5.824375 -2.061875 5.824375 -2.125 4.625 C-2 2 -2 2 0 0 Z " fill="#F39CBB" transform="translate(1253,395)"/>
<path d="M0 0 C0.99 0.33 1.98 0.66 3 1 C3 2.32 3 3.64 3 5 C3.639375 5.103125 4.27875 5.20625 4.9375 5.3125 C5.618125 5.539375 6.29875 5.76625 7 6 C7.33 6.99 7.66 7.98 8 9 C7.01 9.99 6.02 10.98 5 12 C4.16180842 10.37750059 3.3295884 8.75191503 2.5 7.125 C2.0359375 6.22007812 1.571875 5.31515625 1.09375 4.3828125 C0 2 0 2 0 0 Z " fill="#F491B5" transform="translate(388,836)"/>
<path d="M0 0 C0.93423645 3.01031744 1.04449911 3.86650268 0 7 C-0.34227417 8.33106622 -0.67751743 9.66400079 -1 11 C-2.65 11 -4.3 11 -6 11 C-4.54955729 6.89041233 -2.48889248 3.56741255 0 0 Z " fill="#F695B7" transform="translate(1358,780)"/>
<path d="M0 0 C2.33294775 -0.04241723 4.66702567 -0.04092937 7 0 C7.33 0.33 7.66 0.66 8 1 C9.34747084 1.23075082 10.70377565 1.41153063 12.0625 1.5625 C13.361875 1.706875 14.66125 1.85125 16 2 C12.70703201 4.19531199 12.25029625 4.2036671 8.5625 3.6875 C7.80066406 3.58824219 7.03882813 3.48898437 6.25390625 3.38671875 C4.13324225 3.02286132 2.07828837 2.55389462 0 2 C0 1.34 0 0.68 0 0 Z " fill="#F193B3" transform="translate(830,1195)"/>
<path d="M0 0 C0.66 0 1.32 0 2 0 C2.65234375 1.765625 2.65234375 1.765625 3 4 C2.00390625 5.921875 2.00390625 5.921875 0.5625 7.75 C0.08941406 8.36359375 -0.38367187 8.9771875 -0.87109375 9.609375 C-1.24363281 10.06828125 -1.61617187 10.5271875 -2 11 C-2.66 9.68 -3.32 8.36 -4 7 C-3.34 6.67 -2.68 6.34 -2 6 C-1.62690101 4.34178227 -1.29299023 2.67422986 -1 1 C-0.67 0.67 -0.34 0.34 0 0 Z " fill="#F78BB1" transform="translate(1525,933)"/>
<path d="M0 0 C4.82675589 2.41337795 7.69984002 5.86062408 11 10 C8.03 9.505 8.03 9.505 5 9 C5 7.68 5 6.36 5 5 C2.525 4.01 2.525 4.01 0 3 C0 2.01 0 1.02 0 0 Z " fill="#F39BBA" transform="translate(509,464)"/>
<path d="M0 0 C1.65 0 3.3 0 5 0 C4.04367001 1.29315061 3.08486149 2.58446853 2.125 3.875 C1.59132813 4.59429688 1.05765625 5.31359375 0.5078125 6.0546875 C-1 8 -1 8 -3 10 C-2.74438677 7.6568787 -2.40729228 5.32156597 -2 3 C-1.34 2.67 -0.68 2.34 0 2 C0 1.34 0 0.68 0 0 Z " fill="#F492B5" transform="translate(1508,956)"/>
<path d="M0 0 C0.99 0.33 1.98 0.66 3 1 C3 2.32 3 3.64 3 5 C3.66 5 4.32 5 5 5 C5 6.32 5 7.64 5 9 C5.66 9 6.32 9 7 9 C7 10.32 7 11.64 7 13 C7.66 13.33 8.32 13.66 9 14 C8.01 14 7.02 14 6 14 C4.99515796 12.04414675 3.99626195 10.08523763 3 8.125 C2.1646875 6.48917969 2.1646875 6.48917969 1.3125 4.8203125 C0 2 0 2 0 0 Z " fill="#F3A6C2" transform="translate(395,850)"/>
<path d="M0 0 C1.66666667 1.66666667 3.33333333 3.33333333 5 5 C5.8971875 5.8353125 5.8971875 5.8353125 6.8125 6.6875 C8 8 8 8 8 10 C6.68 10 5.36 10 4 10 C4 9.01 4 8.02 4 7 C3.01 6.67 2.02 6.34 1 6 C0.67 4.02 0.34 2.04 0 0 Z " fill="#F396B7" transform="translate(520,474)"/>
<path d="M0 0 C-1.74029302 0.89415055 -3.4927015 1.76475178 -5.25 2.625 C-6.22453125 3.11226563 -7.1990625 3.59953125 -8.203125 4.1015625 C-11 5 -11 5 -13.359375 4.1484375 C-13.90078125 3.76945312 -14.4421875 3.39046875 -15 3 C-13.68 3 -12.36 3 -11 3 C-11 2.34 -11 1.68 -11 1 C-4.03571429 -1.27678571 -4.03571429 -1.27678571 0 0 Z " fill="#F296B7" transform="translate(1212,444)"/>
<path d="M0 0 C1.58409994 0.11487748 3.16728963 0.24234508 4.75 0.375 C6.07257812 0.47941406 6.07257812 0.47941406 7.421875 0.5859375 C10.04500089 1.00722742 11.78861868 1.53570697 14 3 C14.33 3.99 14.66 4.98 15 6 C4.44191344 2.92482916 4.44191344 2.92482916 0 1 C0 0.67 0 0.34 0 0 Z " fill="#F3A3C0" transform="translate(742,1168)"/>
<path d="M0 0 C-5.94 3.465 -5.94 3.465 -12 7 C-12.33 6.01 -12.66 5.02 -13 4 C-11.68 4 -10.36 4 -9 4 C-9 3.34 -9 2.68 -9 2 C-8.34 2 -7.68 2 -7 2 C-7 1.34 -7 0.68 -7 0 C-4 -1 -4 -1 0 0 Z " fill="#F19FBB" transform="translate(1332,1119)"/>
<path d="M0 0 C2.3431213 0.25561323 4.67843403 0.59270772 7 1 C7.33 1.66 7.66 2.32 8 3 C8.99 3.33 9.98 3.66 11 4 C11.6875 6.0625 11.6875 6.0625 12 8 C7.44328408 6.48109469 3.68276708 4.04597738 0 1 C0 0.67 0 0.34 0 0 Z " fill="#F59FBD" transform="translate(616,1101)"/>
<path d="M0 0 C5.75 0.75 5.75 0.75 8 3 C8.125 5.625 8.125 5.625 8 8 C6.85073734 7.04578192 5.70569459 6.08647955 4.5625 5.125 C3.92441406 4.59132813 3.28632812 4.05765625 2.62890625 3.5078125 C1 2 1 2 0 0 Z " fill="#F496B8" transform="translate(525,1027)"/>
<path d="M0 0 C0.33 1.32 0.66 2.64 1 4 C-0.32 4.33 -1.64 4.66 -3 5 C-3.103125 5.61875 -3.20625 6.2375 -3.3125 6.875 C-4 9 -4 9 -7 11 C-7.33 10.01 -7.66 9.02 -8 8 C-5.36 5.36 -2.72 2.72 0 0 Z " fill="#F386AB" transform="translate(1299,856)"/>
<path d="M0 0 C0.99 0 1.98 0 3 0 C1.58707905 4.8274799 -0.42974154 8.7162359 -3 13 C-3.33 13 -3.66 13 -4 13 C-4.20086443 9.28400809 -4.1519437 8.22791555 -2 5 C-1.34 5 -0.68 5 0 5 C0 3.35 0 1.7 0 0 Z " fill="#F3A3BF" transform="translate(1577,849)"/>
<path d="M0 0 C0.33 0 0.66 0 1 0 C1 1.65 1 3.3 1 5 C1.66 5 2.32 5 3 5 C5.32590854 8.63423209 5.16265833 11.77088331 5 16 C3.21983645 13.32975467 2.02836981 10.94969139 0.8125 8 C0.44769531 7.13375 0.08289063 6.2675 -0.29296875 5.375 C-1 3 -1 3 0 0 Z " fill="#F49CBC" transform="translate(370,791)"/>
<path d="M0 0 C1.49797265 1.99729687 2.04943516 3.44160744 1.828125 5.94140625 C1.07552724 9.4643423 0.54579645 11.48630923 -2.125 14 C-2.74375 14.33 -3.3625 14.66 -4 15 C-2.9318153 9.88634986 -1.76892524 4.92772031 0 0 Z " fill="#F4A4C0" transform="translate(1405,675)"/>
<path d="M0 0 C3.51855159 1.40742064 4.38612834 2.66466523 6 6 C6.99 6.33 7.98 6.66 9 7 C8.67 7.99 8.34 8.98 8 10 C4.82537057 7.59757773 2.14248259 5.38286724 0 2 C0 1.34 0 0.68 0 0 Z " fill="#F399B9" transform="translate(1086,414)"/>
<path d="M0 0 C0.99 0.33 1.98 0.66 3 1 C3 2.32 3 3.64 3 5 C3.66 5.33 4.32 5.66 5 6 C5.6837045 7.32467746 6.34964186 8.65863633 7 10 C7.66 10.66 8.32 11.32 9 12 C8.34 12.66 7.68 13.32 7 14 C6.01441551 12.42065361 5.03677459 10.83634827 4.0625 9.25 C3.51722656 8.36828125 2.97195313 7.4865625 2.41015625 6.578125 C1.17284288 4.31600083 0.46409487 2.51433675 0 0 Z " fill="#F3A0BE" transform="translate(722,400)"/>
<path d="M0 0 C4.25 6.375 4.25 6.375 4.125 11.1875 C4.10695313 12.08855469 4.08890625 12.98960937 4.0703125 13.91796875 C4.03550781 14.94857422 4.03550781 14.94857422 4 16 C0.78235549 11.17353323 -0.36261136 5.80178176 0 0 Z " fill="#F3A6C1" transform="translate(1069,373)"/>
<path d="M0 0 C1.65 0 3.3 0 5 0 C1.33997803 3.05001831 -4.07851471 7 -9 7 C-9 6.01 -9 5.02 -9 4 C-7.35 4 -5.7 4 -4 4 C-4 3.34 -4 2.68 -4 2 C-2.68 2 -1.36 2 0 2 C0 1.34 0 0.68 0 0 Z " fill="#F399B9" transform="translate(1294,1137)"/>
<path d="M0 0 C0.99 0 1.98 0 3 0 C0.10933941 9.59453303 0.10933941 9.59453303 -3 13 C-2.52060632 8.28596212 -2.03165952 4.33420699 0 0 Z " fill="#F29DBB" transform="translate(1587,828)"/>
<path d="M0 0 C0.66 0.99 1.32 1.98 2 3 C0.79724696 7.32991096 -1.73452211 11.14868759 -4 15 C-5 13 -5 13 -4.00390625 9.9609375 C-3.52824219 8.77757812 -3.05257813 7.59421875 -2.5625 6.375 C-2.08941406 5.18648437 -1.61632813 3.99796875 -1.12890625 2.7734375 C-0.75636719 1.85820313 -0.38382813 0.94296875 0 0 Z " fill="#F5A0BE" transform="translate(1394,707)"/>
<path d="M0 0 C1.32 0 2.64 0 4 0 C4 1.32 4 2.64 4 4 C5.32 4.66 6.64 5.32 8 6 C8 6.66 8 7.32 8 8 C8.66 8.66 9.32 9.32 10 10 C9.01 10 8.02 10 7 10 C5.17578125 8.06640625 5.17578125 8.06640625 3.3125 5.5625 C2.68988281 4.73878906 2.06726563 3.91507813 1.42578125 3.06640625 C0 1 0 1 0 0 Z " fill="#F59FBE" transform="translate(453,945)"/>
<path d="M0 0 C7.48291572 6.15034169 7.48291572 6.15034169 10 10 C6.84859577 9.65930765 5.39218439 9.41923159 3.1875 7.0625 C2 5 2 5 2 3 C1.01 2.67 0.02 2.34 -1 2 C-0.67 1.34 -0.34 0.68 0 0 Z " fill="#F19EBD" transform="translate(664,845)"/>
<path d="M0 0 C2 3 2 3 1.625 5.1875 C1.41875 5.785625 1.2125 6.38375 1 7 C0.34 7 -0.32 7 -1 7 C-1.33 8.32 -1.66 9.64 -2 11 C-2.66 11 -3.32 11 -4 11 C-3.39301257 6.87248551 -1.96189209 3.6678852 0 0 Z " fill="#F498B8" transform="translate(1386,727)"/>
<path d="M0 0 C0.33 0 0.66 0 1 0 C1.36463732 1.74784829 1.7163078 3.49840502 2.0625 5.25 C2.25972656 6.22453125 2.45695313 7.1990625 2.66015625 8.203125 C2.98397535 10.868119 2.85503199 12.48871723 2 15 C1.34 14.67 0.68 14.34 0 14 C0 9.38 0 4.76 0 0 Z " fill="#F5A5C1" transform="translate(557,626)"/>
<path d="M0 0 C-3.12621626 3.39417765 -5.56541027 5.6062718 -10 7 C-10 6.01 -10 5.02 -10 4 C-8.68 4 -7.36 4 -6 4 C-6.33 3.01 -6.66 2.02 -7 1 C-4.53721199 -0.231394 -2.7204945 -0.07159196 0 0 Z " fill="#F395B6" transform="translate(871,433)"/>
<path d="M0 0 C1.15006091 3.37299744 0.85199953 5.34853215 -0.3125 8.6875 C-0.57675781 9.47511719 -0.84101562 10.26273437 -1.11328125 11.07421875 C-2 13 -2 13 -4 14 C-3.46148032 8.72250715 -2.22656164 4.74354436 0 0 Z " fill="#F3A0BF" transform="translate(720,317)"/>
<path d="M0 0 C0.33 1.32 0.66 2.64 1 4 C0.01 4.33 -0.98 4.66 -2 5 C-2.144375 5.639375 -2.28875 6.27875 -2.4375 6.9375 C-3 9 -3 9 -5.0625 10.25 C-5.701875 10.4975 -6.34125 10.745 -7 11 C-5.5140084 6.40693504 -3.14985318 3.56430755 0 0 Z " fill="#F29EBC" transform="translate(734,295)"/>
<path d="M0 0 C0.99 0.33 1.98 0.66 3 1 C3 1.99 3 2.98 3 4 C3.639375 4.20625 4.27875 4.4125 4.9375 4.625 C7 6 7 6 7.75 9.125 C7.8325 10.07375 7.915 11.0225 8 12 C4.74451247 8.97704729 2.31022942 5.79537691 0 2 C0 1.34 0 0.68 0 0 Z " fill="#F5A6C2" transform="translate(428,908)"/>
<path d="M0 0 C0.99 0 1.98 0 3 0 C1.74194623 4.50802601 0.09592835 7.4912812 -3 11 C-3.39253254 6.55129785 -2.15305957 3.85756507 0 0 Z " fill="#F29FBC" transform="translate(1563,875)"/>
<path d="M0 0 C0.66 0 1.32 0 2 0 C2.40652968 5.42039575 1.03993514 9.07015675 -1 14 C-1.33 14 -1.66 14 -2 14 C-2.21192221 8.80790596 -1.5912689 4.873261 0 0 Z " fill="#F29BB9" transform="translate(1609,774)"/>
<path d="M0 0 C0.33 0 0.66 0 1 0 C1 2.97 1 5.94 1 9 C0.34 9 -0.32 9 -1 9 C-1.33 10.98 -1.66 12.96 -2 15 C-3.31534494 11.34142468 -2.65468309 8.91973519 -1.5625 5.25 C-1.27503906 4.26515625 -0.98757813 3.2803125 -0.69140625 2.265625 C-0.46324219 1.51796875 -0.23507812 0.7703125 0 0 Z " fill="#F3A2BE" transform="translate(1072,327)"/>
<path d="M0 0 C1.98270912 0.95098266 3.96108379 1.91100703 5.9375 2.875 C7.03964844 3.40867187 8.14179687 3.94234375 9.27734375 4.4921875 C12 6 12 6 13 8 C11.68 8 10.36 8 9 8 C9 7.34 9 6.68 9 6 C6.69 5.34 4.38 4.68 2 4 C2 3.34 2 2.68 2 2 C1.34 2 0.68 2 0 2 C0 1.34 0 0.68 0 0 Z " fill="#F3A8C3" transform="translate(767,928)"/>
<path d="M0 0 C2.77398263 3.46747828 4.95912413 7.06402511 7 11 C6.67 11.66 6.34 12.32 6 13 C5.01 12.34 4.02 11.68 3 11 C3 9.68 3 8.36 3 7 C2.34 7 1.68 7 1 7 C0.67 4.69 0.34 2.38 0 0 Z " fill="#F5A6C2" transform="translate(598,749)"/>
<path d="M0 0 C2.0625 0.4375 2.0625 0.4375 4 1 C2.625 2.5 2.625 2.5 1 4 C0.34 4 -0.32 4 -1 4 C-1 4.66 -1 5.32 -1 6 C-2.65 6 -4.3 6 -6 6 C-4 4 -2 2 0 0 Z " fill="#F395B6" transform="translate(373,457)"/>
<path d="M0 0 C1.93681161 -0.08107583 3.8745934 -0.13922475 5.8125 -0.1875 C6.89144531 -0.22230469 7.97039063 -0.25710938 9.08203125 -0.29296875 C12 0 12 0 13.88671875 1.51171875 C14.25410156 2.00285156 14.62148438 2.49398438 15 3 C4.44191344 2.03644647 4.44191344 2.03644647 0 1 C0 0.67 0 0.34 0 0 Z " fill="#F5A2C0" transform="translate(852,1201)"/>
<path d="M0 0 C2.38564077 0.57584432 4.66682784 1.22227595 7 2 C7.33 3.98 7.66 5.96 8 8 C6.85073734 7.04578192 5.70569459 6.08647955 4.5625 5.125 C3.92441406 4.59132813 3.28632813 4.05765625 2.62890625 3.5078125 C1 2 1 2 0 0 Z " fill="#F5A6C3" transform="translate(501,1003)"/>
<path d="M0 0 C4.23429756 1.31061591 8.07407404 2.94356259 12 5 C12 5.33 12 5.66 12 6 C4 5.07692308 4 5.07692308 1 3 C0.67 2.01 0.34 1.02 0 0 Z " fill="#F0A0BC" transform="translate(792,942)"/>
<path d="M0 0 C0 0.99 0 1.98 0 3 C-6.96428571 6.34821429 -6.96428571 6.34821429 -11 5 C-9.54462432 4.16151196 -8.08559627 3.32936066 -6.625 2.5 C-5.81289062 2.0359375 -5.00078125 1.571875 -4.1640625 1.09375 C-2 0 -2 0 0 0 Z " fill="#F29BB9" transform="translate(1205,930)"/>
<path d="M0 0 C0.99 0 1.98 0 3 0 C3 3.66666667 3 7.33333333 3 11 C2.34 10.67 1.68 10.34 1 10 C0.5859375 7.71484375 0.5859375 7.71484375 0.375 4.9375 C0.30023438 4.01839844 0.22546875 3.09929688 0.1484375 2.15234375 C0.09945313 1.44207031 0.05046875 0.73179687 0 0 Z " fill="#F977A3" transform="translate(435,912)"/>
<path d="M0 0 C0.66 0 1.32 0 2 0 C4.24828052 4.49656104 4.16682272 8.07872966 4 13 C2.42445965 10.11371599 1.53723627 7.46657616 0.875 4.25 C0.70742188 3.45078125 0.53984375 2.6515625 0.3671875 1.828125 C0.24601562 1.22484375 0.12484375 0.6215625 0 0 Z " fill="#F4A3BF" transform="translate(349,733)"/>
<path d="M0 0 C1.19109375 0.40798828 1.19109375 0.40798828 2.40625 0.82421875 C3.2003125 1.08847656 3.994375 1.35273438 4.8125 1.625 C6.90625 2.51171875 6.90625 2.51171875 8.90625 4.51171875 C6.92551635 4.23089075 4.94666552 3.93675261 2.96875 3.63671875 C1.31552734 3.39308594 1.31552734 3.39308594 -0.37109375 3.14453125 C-1.26957031 2.93570312 -2.16804688 2.726875 -3.09375 2.51171875 C-3.42375 1.85171875 -3.75375 1.19171875 -4.09375 0.51171875 C-2.09375 -0.48828125 -2.09375 -0.48828125 0 0 Z " fill="#F392B5" transform="translate(1200.09375,266.48828125)"/>
<path d="M0 0 C1.45947705 0.06006078 2.91779272 0.1488689 4.375 0.25 C5.59316406 0.31960938 5.59316406 0.31960938 6.8359375 0.390625 C9 1 9 1 10.2890625 3.046875 C10.64097656 4.01367188 10.64097656 4.01367188 11 5 C9.53932801 4.54917531 8.08151968 4.08906463 6.625 3.625 C5.81289063 3.36976562 5.00078125 3.11453125 4.1640625 2.8515625 C2 2 2 2 0 0 Z " fill="#F29EBC" transform="translate(701,1150)"/>
<path d="M0 0 C4.39683488 1.19913678 7.09840934 2.4288115 10 6 C10 6.66 10 7.32 10 8 C6.05205855 6.32971708 3.18203882 3.8204435 0 1 C0 0.67 0 0.34 0 0 Z " fill="#F5A1BF" transform="translate(558,1057)"/>
<path d="M0 0 C1.134375 0.020625 2.26875 0.04125 3.4375 0.0625 C1.72921079 2.16883718 0.91601584 3.00051608 -1.82421875 3.35546875 C-2.62472656 3.32066406 -3.42523437 3.28585937 -4.25 3.25 C-5.46236328 3.20939453 -5.46236328 3.20939453 -6.69921875 3.16796875 C-7.62154297 3.11576172 -7.62154297 3.11576172 -8.5625 3.0625 C-7.923125 2.753125 -7.28375 2.44375 -6.625 2.125 C-2.58814103 0.04540598 -2.58814103 0.04540598 0 0 Z " fill="#F189AD" transform="translate(1044.5625,983.9375)"/>
<path d="M0 0 C4.03384128 2.07143201 5.92856799 3.96615872 8 8 C7.01 8.495 7.01 8.495 6 9 C6 8.34 6 7.68 6 7 C5.38125 6.773125 4.7625 6.54625 4.125 6.3125 C1.38589791 4.62070165 0.94975528 3.00755839 0 0 Z " fill="#F29BB8" transform="translate(875,286)"/>
<path d="M0 0 C4.455 0.99 4.455 0.99 9 2 C6.08235 3.9451 4.37462715 4.45276317 1 5 C1.33 4.34 1.66 3.68 2 3 C1.34 2.67 0.68 2.34 0 2 C0 1.34 0 0.68 0 0 Z " fill="#F391B3" transform="translate(835,961)"/>
<path d="M0 0 C0.66 0.33 1.32 0.66 2 1 C1.4375 2.9375 1.4375 2.9375 0 5 C-3.625 5.75 -3.625 5.75 -7 6 C-4.74259377 3.66475218 -2.7194239 1.81294927 0 0 Z " fill="#F598B9" transform="translate(1233,911)"/>
<path d="M0 0 C2.125 0.375 2.125 0.375 4 1 C4 2.98 4 4.96 4 7 C3.01 6.34 2.02 5.68 1 5 C1 4.34 1 3.68 1 3 C0.01 2.67 -0.98 2.34 -2 2 C-1.34 1.34 -0.68 0.68 0 0 Z " fill="#F685AB" transform="translate(1275,878)"/>
<path d="M0 0 C0.66 0 1.32 0 2 0 C4.15305957 3.85756507 5.39253254 6.55129785 5 11 C2.03947516 7.63576723 1.07710178 4.30840713 0 0 Z " fill="#F1A1BE" transform="translate(383,825)"/>
<path d="M0 0 C0.66 0 1.32 0 2 0 C2 2.31 2 4.62 2 7 C2.66 7 3.32 7 4 7 C3.67 8.98 3.34 10.96 3 13 C1.32889958 10.03821227 0.67317248 7.62928808 0.375 4.25 C0.30023438 3.45078125 0.22546875 2.6515625 0.1484375 1.828125 C0.09945313 1.22484375 0.05046875 0.6215625 0 0 Z " fill="#F3A1BF" transform="translate(337,683)"/>
<path d="M0 0 C0.33 0 0.66 0 1 0 C0.67 2.31 0.34 4.62 0 7 C-0.66 7 -1.32 7 -2 7 C-2 8.98 -2 10.96 -2 13 C-3.1171875 11.296875 -3.1171875 11.296875 -4 9 C-3.3203125 6.640625 -3.3203125 6.640625 -2.125 4.25 C-1.73570312 3.45078125 -1.34640625 2.6515625 -0.9453125 1.828125 C-0.63335937 1.22484375 -0.32140625 0.6215625 0 0 Z " fill="#F5A2C0" transform="translate(335,501)"/>
<path d="M0 0 C1.65 0 3.3 0 5 0 C2.11912454 2.40072955 -0.56404834 4.47291037 -4 6 C-4.33 4.68 -4.66 3.36 -5 2 C-3.35 2 -1.7 2 0 2 C0 1.34 0 0.68 0 0 Z " fill="#F39DBB" transform="translate(1345,1107)"/>
<path d="M0 0 C3.91211733 1.15585285 6.8745041 2.35534962 10 5 C6.63295715 5.2295711 4.58629732 5.33943529 1.625 3.625 C1.08875 3.08875 0.5525 2.5525 0 2 C0 1.34 0 0.68 0 0 Z " fill="#F19CBB" transform="translate(782,937)"/>
<path d="M0 0 C0.66 0 1.32 0 2 0 C2 0.66 2 1.32 2 2 C2.99 2.33 3.98 2.66 5 3 C6.25 5.4375 6.25 5.4375 7 8 C6.67 8.66 6.34 9.32 6 10 C4.99421411 8.71283353 3.99553202 7.42011342 3 6.125 C2.443125 5.40570312 1.88625 4.68640625 1.3125 3.9453125 C0 2 0 2 0 0 Z " fill="#F4A3C1" transform="translate(440,926)"/>
<path d="M0 0 C0.66 0 1.32 0 2 0 C1.14285714 8.57142857 1.14285714 8.57142857 -1 12 C-2.36884358 7.48281619 -1.47075246 4.41225737 0 0 Z " fill="#F4A6C3" transform="translate(1630,707)"/>
<path d="M0 0 C2.31 1.98 4.62 3.96 7 6 C6.67 6.66 6.34 7.32 6 8 C3.5625 7.375 3.5625 7.375 1 6 C0.1875 2.875 0.1875 2.875 0 0 Z " fill="#F399B9" transform="translate(1234,289)"/>
<path d="M0 0 C-1.90401138 1.90401138 -3.33425686 2.93520439 -6.046875 3.19921875 C-8.03233273 3.1886578 -10.0169914 3.09915043 -12 3 C-7.97869817 0.31913211 -4.73968522 -1.57989507 0 0 Z " fill="#F5A5C2" transform="translate(786,264)"/>
<path d="M0 0 C0.99 0.33 1.98 0.66 3 1 C3.33 2.65 3.66 4.3 4 6 C4.99 6.33 5.98 6.66 7 7 C6.01 8.485 6.01 8.485 5 10 C4.16121545 8.71186658 3.32913217 7.41936744 2.5 6.125 C2.0359375 5.40570312 1.571875 4.68640625 1.09375 3.9453125 C0 2 0 2 0 0 Z " fill="#F1A3BF" transform="translate(422,898)"/>
<path d="M0 0 C1.04449911 3.13349732 0.93423645 3.98968256 0 7 C-1.65 7.33 -3.3 7.66 -5 8 C-3.62845496 5.04590299 -2.01136276 2.55991624 0 0 Z " fill="#F4A3BF" transform="translate(350,478)"/>
<path d="M0 0 C1.65 0.33 3.3 0.66 5 1 C3.37660195 2.70884005 1.70680947 4.37446717 0 6 C-0.66 6 -1.32 6 -2 6 C-2 5.01 -2 4.02 -2 3 C-1.34 3 -0.68 3 0 3 C0 2.01 0 1.02 0 0 Z " fill="#F596B7" transform="translate(1219,434)"/>
<path d="M0 0 C0.33 0.99 0.66 1.98 1 3 C-0.98 4.32 -2.96 5.64 -5 7 C-5.66 6.67 -6.32 6.34 -7 6 C-4.69 4.02 -2.38 2.04 0 0 Z " fill="#F5A7C4" transform="translate(1103,282)"/>
<path d="M0 0 C-3.00617269 3.00617269 -5.82381598 2.59585316 -10 3 C-10 2.34 -10 1.68 -10 1 C-6.52674819 -0.1577506 -3.63932552 -0.06866652 0 0 Z " fill="#F395B6" transform="translate(1162,1191)"/>
<path d="M0 0 C0.66 0 1.32 0 2 0 C2.268125 0.763125 2.53625 1.52625 2.8125 2.3125 C3.94424112 4.87380884 4.91223401 6.19692938 7 8 C6.01 8 5.02 8 4 8 C2.61328125 6.46875 2.61328125 6.46875 1.3125 4.5 C0.87550781 3.8503125 0.43851562 3.200625 -0.01171875 2.53125 C-0.50091797 1.77328125 -0.50091797 1.77328125 -1 1 C-0.67 0.67 -0.34 0.34 0 0 Z " fill="#F4A8C5" transform="translate(463,956)"/>
<path d="M0 0 C2.31 0.33 4.62 0.66 7 1 C7 1.99 7 2.98 7 4 C6.401875 3.835 5.80375 3.67 5.1875 3.5 C2.88655664 2.8885876 2.88655664 2.8885876 0 3 C0 2.01 0 1.02 0 0 Z " fill="#F67FA8" transform="translate(709,891)"/>
<path d="M0 0 C0.66 0.33 1.32 0.66 2 1 C0.25 6.75 0.25 6.75 -2 9 C-2.25 3.375 -2.25 3.375 0 0 Z " fill="#F3A2BD" transform="translate(1582,840)"/>
<path d="M0 0 C0.66 0.33 1.32 0.66 2 1 C1.01 4.3 0.02 7.6 -1 11 C-1.33 11 -1.66 11 -2 11 C-2 8.69 -2 6.38 -2 4 C-1.34 4 -0.68 4 0 4 C0 2.68 0 1.36 0 0 Z " fill="#F4A0BE" transform="translate(1603,792)"/>
<path d="M0 0 C0.33 0 0.66 0 1 0 C1 2.64 1 5.28 1 8 C0.34 8 -0.32 8 -1 8 C-1.33 8.99 -1.66 9.98 -2 11 C-3 9 -3 9 -2.44140625 6.8359375 C-2.15136719 6.02382813 -1.86132812 5.21171875 -1.5625 4.375 C-1.27503906 3.55773437 -0.98757813 2.74046875 -0.69140625 1.8984375 C-0.46324219 1.27195312 -0.23507812 0.64546875 0 0 Z " fill="#F3A2BE" transform="translate(1398,696)"/>
<path d="M0 0 C0.33 0 0.66 0 1 0 C1.08096803 1.45742463 1.13917774 2.91612807 1.1875 4.375 C1.22230469 5.18710937 1.25710938 5.99921875 1.29296875 6.8359375 C1.19628906 7.55007813 1.09960938 8.26421875 1 9 C0.01 9.66 -0.98 10.32 -2 11 C-1 3.57142857 -1 3.57142857 0 0 Z " fill="#F39FBD" transform="translate(1408,664)"/>
<path d="M0 0 C3.465 1.98 3.465 1.98 7 4 C7 4.99 7 5.98 7 7 C6.34 6.34 5.68 5.68 5 5 C3.01643517 4.28591666 1.01684563 3.61382258 -1 3 C-0.67 2.01 -0.34 1.02 0 0 Z " fill="#F396B7" transform="translate(1598,457)"/>
<path d="M0 0 C3.08089673 2.77280706 4.68775452 5.06326356 6 9 C3.5625 7.875 3.5625 7.875 1 6 C0.1875 2.8125 0.1875 2.8125 0 0 Z " fill="#F59FBE" transform="translate(889,302)"/>
<path d="M0 0 C0 3.15081975 -0.27898465 4.41847698 -2 7 C-4.125 7.75 -4.125 7.75 -6 8 C-4.55746343 4.63408134 -2.66735273 2.48952921 0 0 Z " fill="#F6B8CD" transform="translate(743,285)"/>
<path d="M0 0 C2.475 0.495 2.475 0.495 5 1 C5.12375 1.639375 5.2475 2.27875 5.375 2.9375 C5.684375 3.9584375 5.684375 3.9584375 6 5 C6.66 5.33 7.32 5.66 8 6 C5 6 5 6 3.61328125 4.6875 C2.40885417 3.125 1.20442708 1.5625 0 0 Z " fill="#F29BB9" transform="translate(518,1020)"/>
<path d="M0 0 C0.66 0.33 1.32 0.66 2 1 C0.68 2.65 -0.64 4.3 -2 6 C-3.32 5.67 -4.64 5.34 -6 5 C-4.02 3.35 -2.04 1.7 0 0 Z " fill="#F5A6C2" transform="translate(1248,900)"/>
<path d="M0 0 C2.29633824 3.44450737 2.54016485 5.93812283 3 10 C2.34 10 1.68 10 1 10 C-0.1577506 6.52674819 -0.06866652 3.63932552 0 0 Z " fill="#F2A3BF" transform="translate(568,674)"/>
<path d="M0 0 C2.79872437 2.52788007 4.45773019 4.20411134 5 8 C2.525 7.01 2.525 7.01 0 6 C0 4.02 0 2.04 0 0 Z " fill="#F4A3C1" transform="translate(1245,302)"/>
<path d="M0 0 C1.65 0 3.3 0 5 0 C5 0.66 5 1.32 5 2 C5.66 2 6.32 2 7 2 C7.33 2.99 7.66 3.98 8 5 C4.62496331 3.8141763 2.35277269 2.72426311 0 0 Z " fill="#F7A3C0" transform="translate(628,1109)"/>
<path d="M0 0 C1.65 0 3.3 0 5 0 C5.33 1.65 5.66 3.3 6 5 C1.125 2.25 1.125 2.25 0 0 Z " fill="#F393B5" transform="translate(568,1065)"/>
<path d="M0 0 C2.97 0.99 5.94 1.98 9 3 C9 3.33 9 3.66 9 4 C6.69 4 4.38 4 2 4 C2 3.34 2 2.68 2 2 C1.34 2 0.68 2 0 2 C0 1.34 0 0.68 0 0 Z " fill="#F3A5C0" transform="translate(807,949)"/>
<path d="M0 0 C2.5 1.375 2.5 1.375 5 3 C5 3.66 5 4.32 5 5 C5.66 5.66 6.32 6.32 7 7 C6.01 7 5.02 7 4 7 C0 2.65714286 0 2.65714286 0 0 Z " fill="#F5A8C2" transform="translate(447,936)"/>
<path d="M0 0 C3.37503669 1.1858237 5.64722731 2.27573689 8 5 C5.125 4.75 5.125 4.75 2 4 C0.625 1.9375 0.625 1.9375 0 0 Z " fill="#F6A5C2" transform="translate(758,923)"/>
<path d="M0 0 C0.66 0.33 1.32 0.66 2 1 C0.35 2.65 -1.3 4.3 -3 6 C-3.66 5.34 -4.32 4.68 -5 4 C-3.35 2.68 -1.7 1.36 0 0 Z " fill="#F5A0BE" transform="translate(1240,906)"/>
<path d="M0 0 C0.33 1.32 0.66 2.64 1 4 C0.34 4 -0.32 4 -1 4 C-1.33 5.65 -1.66 7.3 -2 9 C-2.66 9 -3.32 9 -4 9 C-2.94124926 5.59687262 -1.99097846 2.98646769 0 0 Z " fill="#F2A4C0" transform="translate(340,492)"/>
<path d="M0 0 C0.33 0.66 0.66 1.32 1 2 C-0.32 3.65 -1.64 5.3 -3 7 C-3.99 6.67 -4.98 6.34 -6 6 C-4.02 4.02 -2.04 2.04 0 0 Z " fill="#F394B7" transform="translate(357,471)"/>
<path d="M0 0 C2.64 0 5.28 0 8 0 C8 0.66 8 1.32 8 2 C8.66 2.33 9.32 2.66 10 3 C3.375 2.25 3.375 2.25 0 0 Z " fill="#F59FBE" transform="translate(776,449)"/>
<path d="M0 0 C2.96175123 0.61277612 4.38058783 1.25372522 7 3 C7 3.66 7 4.32 7 5 C4.0625 4.1875 4.0625 4.1875 1 3 C0.67 2.01 0.34 1.02 0 0 Z " fill="#F0A1BC" transform="translate(1117,441)"/>
</svg>
